<?xml version="1.0" encoding="UTF-8" standalone="no"?>
<svg
   xmlns:ns4="http://www.iki.fi/pav/software/textext/"
   xmlns:dc="http://purl.org/dc/elements/1.1/"
   xmlns:cc="http://creativecommons.org/ns#"
   xmlns:rdf="http://www.w3.org/1999/02/22-rdf-syntax-ns#"
   xmlns:svg="http://www.w3.org/2000/svg"
   xmlns="http://www.w3.org/2000/svg"
   xmlns:sodipodi="http://sodipodi.sourceforge.net/DTD/sodipodi-0.dtd"
   xmlns:inkscape="http://www.inkscape.org/namespaces/inkscape"
   width="210mm"
   height="297mm"
   viewBox="0 0 793.70081 1122.5197"
   version="1.1"
   id="svg8"
   inkscape:version="1.0.2 (1.0.2+r75+1)"
   sodipodi:docname="gain_limit.svg">
  <defs
     id="defs2">
    <marker
       id="ArrowAxisEnd"
       orient="auto"
       refX="0.0"
       refY="0.0"
       style="overflow:visible"
       inkscape:stockid="ArrowAxisEnd">
      <path
         d="M 0.0,0.0 L 5.0,-5.0 L -12.5,0.0 L 5.0,5.0 L 0.0,0.0 z "
         style="fill:#000000;fill-rule:evenodd;stroke:#000000;stroke-width:1.0"
         transform="scale(0.4) rotate(180) translate(8.818000000000001,0)"
         id="path48679" />
    </marker>
  </defs>
  <sodipodi:namedview
     id="base"
     pagecolor="#ffffff"
     bordercolor="#666666"
     borderopacity="1.0"
     inkscape:pageopacity="0.0"
     inkscape:pageshadow="2"
     inkscape:zoom="1.4"
     inkscape:cx="270.07272"
     inkscape:cy="640.89391"
     inkscape:document-units="px"
     inkscape:current-layer="svg8"
     inkscape:document-rotation="0"
     showgrid="true"
     inkscape:window-width="1920"
     inkscape:window-height="1056"
     inkscape:window-x="0"
     inkscape:window-y="0"
     inkscape:window-maximized="1"
     inkscape:snap-text-baseline="true">
    <inkscape:grid
       type="xygrid"
       id="grid869" />
  </sodipodi:namedview>
  <metadata
     id="metadata5">
    <rdf:RDF>
      <cc:Work
         rdf:about="">
        <dc:format>image/svg+xml</dc:format>
        <dc:type
           rdf:resource="http://purl.org/dc/dcmitype/StillImage" />
        <dc:title />
      </cc:Work>
    </rdf:RDF>
  </metadata>
  <g
     inkscape:label="Layer 1"
     inkscape:groupmode="layer"
     id="layer1" />
  <g
     inkscape:label="PlotData"
     id="g8324"
     transform="translate(-70,20)"
     inkscape:export-xdpi="829.16949"
     inkscape:export-ydpi="829.16949">
    <g
       inkscape:label="Plot"
       transform="translate(370,510)"
       id="g8320">
      <g
         inkscape:label="Ticks"
         id="g8204">
        <path
           d="M -13.9794,0 V -40"
           style="fill:none;stroke:#b2b2b2;stroke-width:0.16;stroke-linecap:round;stroke-linejoin:round;stroke-dasharray:none"
           inkscape:label="none"
           id="path7971" />
        <path
           d="M -10.457575,0 V -40"
           style="fill:none;stroke:#b2b2b2;stroke-width:0.16;stroke-linecap:round;stroke-linejoin:round;stroke-dasharray:none"
           inkscape:label="none"
           id="path7973" />
        <path
           d="M -7.9588002,0 V -40"
           style="fill:none;stroke:#b2b2b2;stroke-width:0.16;stroke-linecap:round;stroke-linejoin:round;stroke-dasharray:none"
           inkscape:label="none"
           id="path7975" />
        <path
           d="M -6.0205999,0 V -40"
           style="fill:none;stroke:#b2b2b2;stroke-width:0.16;stroke-linecap:round;stroke-linejoin:round;stroke-dasharray:none"
           inkscape:label="none"
           id="path7977" />
        <path
           d="M -4.436975,0 V -40"
           style="fill:none;stroke:#b2b2b2;stroke-width:0.16;stroke-linecap:round;stroke-linejoin:round;stroke-dasharray:none"
           inkscape:label="none"
           id="path7979" />
        <path
           d="M -3.0980392,0 V -40"
           style="fill:none;stroke:#b2b2b2;stroke-width:0.16;stroke-linecap:round;stroke-linejoin:round;stroke-dasharray:none"
           inkscape:label="none"
           id="path7981" />
        <path
           d="M -1.9382003,0 V -40"
           style="fill:none;stroke:#b2b2b2;stroke-width:0.16;stroke-linecap:round;stroke-linejoin:round;stroke-dasharray:none"
           inkscape:label="none"
           id="path7983" />
        <path
           d="M -0.91514981,0 V -40"
           style="fill:none;stroke:#b2b2b2;stroke-width:0.16;stroke-linecap:round;stroke-linejoin:round;stroke-dasharray:none"
           inkscape:label="none"
           id="path7985" />
        <g
           inkscape:label="Layer 1"
           inkscape:groupmode="layer"
           id="g8021"
           transform="matrix(0.353918,0,0,0.353918,-161.56719,-194.19798)">
          <g
             transform="matrix(1.33333,0,0,1.33333,387.603,554.36)"
             ns4:version="1.1.0"
             ns4:texconverter="pdflatex"
             ns4:pdfconverter="inkscape"
             ns4:text=" $10^{-1}$"
             ns4:preamble="/home/fernando/.config/inkscape/extensions/inkscapeMadeEasy/basicLatexPackages.tex"
             ns4:scale="1.0"
             ns4:alignment="middle center"
             ns4:inkscapeversion="1.0.1"
             ns4:jacobian_sqrt="1.33333"
             id="g8019">
            <defs
               id="id-925c3c98-d86e-4e51-9073-4a7413981477" />
            <g
               id="id-08ca1a69-1db6-4710-abd7-cfa1b24c27e8"
               transform="translate(-149.603,-126.524)">
              <g
                 style="fill:#000000;fill-opacity:1"
                 id="id-27d64ee9-b6cc-4b4a-baca-a30ebef8b763">
                <g
                   transform="translate(148.712,134.765)"
                   id="g8004">
                  <path
                     style="stroke:none"
                     d="m 2.9375,-6.375 c 0,-0.25 0,-0.265625 -0.234375,-0.265625 C 2.078125,-6 1.203125,-6 0.890625,-6 v 0.3125 c 0.203125,0 0.78125,0 1.296875,-0.265625 v 5.171875 c 0,0.359375 -0.03125,0.46875 -0.921875,0.46875 h -0.3125 V 0 c 0.34375,-0.03125 1.203125,-0.03125 1.609375,-0.03125 0.390625,0 1.265625,0 1.609375,0.03125 v -0.3125 h -0.3125 c -0.90625,0 -0.921875,-0.109375 -0.921875,-0.46875 z m 0,0"
                     id="id-8b108801-3fd1-4ec2-8731-b9eead7d29bc" />
                </g>
                <g
                   transform="translate(153.693,134.765)"
                   id="g8007">
                  <path
                     style="stroke:none"
                     d="m 4.578125,-3.1875 c 0,-0.796875 -0.046875,-1.59375 -0.390625,-2.328125 -0.453125,-0.96875 -1.28125,-1.125 -1.6875,-1.125 -0.609375,0 -1.328125,0.265625 -1.75,1.1875 -0.3125,0.6875 -0.359375,1.46875 -0.359375,2.265625 0,0.75 0.03125,1.640625 0.453125,2.40625 0.421875,0.796875 1.15625,1 1.640625,1 0.53125,0 1.296875,-0.203125 1.734375,-1.15625 0.3125,-0.6875 0.359375,-1.46875 0.359375,-2.25 z M 2.484375,0 C 2.09375,0 1.5,-0.25 1.328125,-1.203125 1.21875,-1.796875 1.21875,-2.71875 1.21875,-3.3125 c 0,-0.640625 0,-1.296875 0.078125,-1.828125 0.1875,-1.1875 0.9375,-1.28125 1.1875,-1.28125 0.328125,0 0.984375,0.1875 1.171875,1.171875 0.109375,0.5625 0.109375,1.3125 0.109375,1.9375 0,0.75 0,1.421875 -0.109375,2.0625 C 3.5,-0.296875 2.9375,0 2.484375,0 Z m 0,0"
                     id="id-7c859d22-4b69-4b58-8d37-937b199693d1" />
                </g>
              </g>
              <g
                 style="fill:#000000;fill-opacity:1"
                 id="id-9a3271ca-dfee-49c1-9f59-900305e83338">
                <g
                   transform="translate(158.675,131.149)"
                   id="g8011">
                  <path
                     style="stroke:none"
                     d="m 5.1875,-1.578125 c 0.109375,0 0.28125,0 0.28125,-0.15625 0,-0.1875 -0.171875,-0.1875 -0.28125,-0.1875 H 1.03125 c -0.109375,0 -0.28125,0 -0.28125,0.171875 0,0.171875 0.15625,0.171875 0.28125,0.171875 z m 0,0"
                     id="id-454693e9-2671-46da-8055-64f8e03cf08f" />
                </g>
              </g>
              <g
                 style="fill:#000000;fill-opacity:1"
                 id="id-cce93290-c215-43e5-9642-19dab76c672a">
                <g
                   transform="translate(164.902,131.149)"
                   id="g8015">
                  <path
                     style="stroke:none"
                     d="m 2.328125,-4.4375 c 0,-0.1875 0,-0.1875 -0.203125,-0.1875 -0.453125,0.4375 -1.078125,0.4375 -1.359375,0.4375 v 0.25 c 0.15625,0 0.625,0 1,-0.1875 v 3.546875 c 0,0.234375 0,0.328125 -0.6875,0.328125 H 0.8125 V 0 c 0.125,0 0.984375,-0.03125 1.234375,-0.03125 0.21875,0 1.09375,0.03125 1.25,0.03125 V -0.25 H 3.03125 c -0.703125,0 -0.703125,-0.09375 -0.703125,-0.328125 z m 0,0"
                     id="id-9743c528-0cae-4d01-8bf7-1a5d6e8dfa0a" />
                </g>
              </g>
            </g>
          </g>
        </g>
        <path
           d="M 0,0 V -40"
           style="fill:none;stroke:#b2b2b2;stroke-width:0.32;stroke-linecap:round;stroke-linejoin:round;stroke-dasharray:none"
           inkscape:label="none"
           id="path8023" />
        <path
           d="M 6.0205999,0 V -40"
           style="fill:none;stroke:#b2b2b2;stroke-width:0.16;stroke-linecap:round;stroke-linejoin:round;stroke-dasharray:none"
           inkscape:label="none"
           id="path8025" />
        <path
           d="M 9.5424251,0 V -40"
           style="fill:none;stroke:#b2b2b2;stroke-width:0.16;stroke-linecap:round;stroke-linejoin:round;stroke-dasharray:none"
           inkscape:label="none"
           id="path8027" />
        <path
           d="M 12.0412,0 V -40"
           style="fill:none;stroke:#b2b2b2;stroke-width:0.16;stroke-linecap:round;stroke-linejoin:round;stroke-dasharray:none"
           inkscape:label="none"
           id="path8029" />
        <path
           d="M 13.9794,0 V -40"
           style="fill:none;stroke:#b2b2b2;stroke-width:0.16;stroke-linecap:round;stroke-linejoin:round;stroke-dasharray:none"
           inkscape:label="none"
           id="path8031" />
        <path
           d="M 15.563025,0 V -40"
           style="fill:none;stroke:#b2b2b2;stroke-width:0.16;stroke-linecap:round;stroke-linejoin:round;stroke-dasharray:none"
           inkscape:label="none"
           id="path8033" />
        <path
           d="M 16.901961,0 V -40"
           style="fill:none;stroke:#b2b2b2;stroke-width:0.16;stroke-linecap:round;stroke-linejoin:round;stroke-dasharray:none"
           inkscape:label="none"
           id="path8035" />
        <path
           d="M 18.0618,0 V -40"
           style="fill:none;stroke:#b2b2b2;stroke-width:0.16;stroke-linecap:round;stroke-linejoin:round;stroke-dasharray:none"
           inkscape:label="none"
           id="path8037" />
        <path
           d="M 19.08485,0 V -40"
           style="fill:none;stroke:#b2b2b2;stroke-width:0.16;stroke-linecap:round;stroke-linejoin:round;stroke-dasharray:none"
           inkscape:label="none"
           id="path8039" />
        <path
           d="M 0,-1 V 1"
           style="fill:none;stroke:#4c4c4c;stroke-width:0.457143;stroke-linecap:round;stroke-linejoin:round;stroke-dasharray:none"
           inkscape:label="none"
           id="path8041" />
        <g
           inkscape:label="Layer 1"
           inkscape:groupmode="layer"
           id="g8069"
           transform="matrix(0.353918,0,0,0.353918,-141.56704,-194.19798)">
          <g
             transform="matrix(1.33333,0,0,1.33333,391.556,554.36)"
             ns4:version="1.1.0"
             ns4:texconverter="pdflatex"
             ns4:pdfconverter="inkscape"
             ns4:text=" $10^{0}$"
             ns4:preamble="/home/fernando/.config/inkscape/extensions/inkscapeMadeEasy/basicLatexPackages.tex"
             ns4:scale="1.0"
             ns4:alignment="middle center"
             ns4:inkscapeversion="1.0.1"
             ns4:jacobian_sqrt="1.33333"
             id="g8067">
            <defs
               id="id-0229e38a-9cb0-459b-83c3-e6b3da303714" />
            <g
               id="id-7cd9a6c4-6167-48cb-a84d-bae8daa8ef60"
               transform="translate(-149.603,-126.524)">
              <g
                 style="fill:#000000;fill-opacity:1"
                 id="id-6a84f5b4-46a9-4adf-9ba7-3bb2f14ffa8f">
                <g
                   transform="translate(148.712,134.765)"
                   id="g8056">
                  <path
                     style="stroke:none"
                     d="m 2.9375,-6.375 c 0,-0.25 0,-0.265625 -0.234375,-0.265625 C 2.078125,-6 1.203125,-6 0.890625,-6 v 0.3125 c 0.203125,0 0.78125,0 1.296875,-0.265625 v 5.171875 c 0,0.359375 -0.03125,0.46875 -0.921875,0.46875 h -0.3125 V 0 c 0.34375,-0.03125 1.203125,-0.03125 1.609375,-0.03125 0.390625,0 1.265625,0 1.609375,0.03125 v -0.3125 h -0.3125 c -0.90625,0 -0.921875,-0.109375 -0.921875,-0.46875 z m 0,0"
                     id="id-5f434176-3d60-4535-bbfe-ae06a200a6eb" />
                </g>
                <g
                   transform="translate(153.693,134.765)"
                   id="g8059">
                  <path
                     style="stroke:none"
                     d="m 4.578125,-3.1875 c 0,-0.796875 -0.046875,-1.59375 -0.390625,-2.328125 -0.453125,-0.96875 -1.28125,-1.125 -1.6875,-1.125 -0.609375,0 -1.328125,0.265625 -1.75,1.1875 -0.3125,0.6875 -0.359375,1.46875 -0.359375,2.265625 0,0.75 0.03125,1.640625 0.453125,2.40625 0.421875,0.796875 1.15625,1 1.640625,1 0.53125,0 1.296875,-0.203125 1.734375,-1.15625 0.3125,-0.6875 0.359375,-1.46875 0.359375,-2.25 z M 2.484375,0 C 2.09375,0 1.5,-0.25 1.328125,-1.203125 1.21875,-1.796875 1.21875,-2.71875 1.21875,-3.3125 c 0,-0.640625 0,-1.296875 0.078125,-1.828125 0.1875,-1.1875 0.9375,-1.28125 1.1875,-1.28125 0.328125,0 0.984375,0.1875 1.171875,1.171875 0.109375,0.5625 0.109375,1.3125 0.109375,1.9375 0,0.75 0,1.421875 -0.109375,2.0625 C 3.5,-0.296875 2.9375,0 2.484375,0 Z m 0,0"
                     id="id-dbc10321-0d2e-44b5-8bc2-772e026bd880" />
                </g>
              </g>
              <g
                 style="fill:#000000;fill-opacity:1"
                 id="id-6b1a1a5b-fd53-40a7-a340-abd4752a250e">
                <g
                   transform="translate(158.675,131.149)"
                   id="g8063">
                  <path
                     style="stroke:none"
                     d="M 3.59375,-2.21875 C 3.59375,-2.984375 3.5,-3.546875 3.1875,-4.03125 2.96875,-4.34375 2.53125,-4.625 1.984375,-4.625 c -1.625,0 -1.625,1.90625 -1.625,2.40625 0,0.5 0,2.359375 1.625,2.359375 1.609375,0 1.609375,-1.859375 1.609375,-2.359375 z M 1.984375,-0.0625 c -0.328125,0 -0.75,-0.1875 -0.890625,-0.75 C 1,-1.21875 1,-1.796875 1,-2.3125 1,-2.828125 1,-3.359375 1.09375,-3.734375 1.25,-4.28125 1.6875,-4.4375 1.984375,-4.4375 c 0.375,0 0.734375,0.234375 0.859375,0.640625 0.109375,0.375 0.125,0.875 0.125,1.484375 0,0.515625 0,1.03125 -0.09375,1.46875 -0.140625,0.640625 -0.609375,0.78125 -0.890625,0.78125 z m 0,0"
                     id="id-e4000b2e-ab69-4138-9083-80d0205db4c7" />
                </g>
              </g>
            </g>
          </g>
        </g>
        <path
           d="M 20,0 V -40"
           style="fill:none;stroke:#b2b2b2;stroke-width:0.32;stroke-linecap:round;stroke-linejoin:round;stroke-dasharray:none"
           inkscape:label="none"
           id="path8071" />
        <path
           d="M 26.0206,0 V -40"
           style="fill:none;stroke:#b2b2b2;stroke-width:0.16;stroke-linecap:round;stroke-linejoin:round;stroke-dasharray:none"
           inkscape:label="none"
           id="path8073" />
        <path
           d="M 29.542425,0 V -40"
           style="fill:none;stroke:#b2b2b2;stroke-width:0.16;stroke-linecap:round;stroke-linejoin:round;stroke-dasharray:none"
           inkscape:label="none"
           id="path8075" />
        <path
           d="M 32.0412,0 V -40"
           style="fill:none;stroke:#b2b2b2;stroke-width:0.16;stroke-linecap:round;stroke-linejoin:round;stroke-dasharray:none"
           inkscape:label="none"
           id="path8077" />
        <path
           d="M 33.9794,0 V -40"
           style="fill:none;stroke:#b2b2b2;stroke-width:0.16;stroke-linecap:round;stroke-linejoin:round;stroke-dasharray:none"
           inkscape:label="none"
           id="path8079" />
        <path
           d="M 35.563025,0 V -40"
           style="fill:none;stroke:#b2b2b2;stroke-width:0.16;stroke-linecap:round;stroke-linejoin:round;stroke-dasharray:none"
           inkscape:label="none"
           id="path8081" />
        <path
           d="M 36.901961,0 V -40"
           style="fill:none;stroke:#b2b2b2;stroke-width:0.16;stroke-linecap:round;stroke-linejoin:round;stroke-dasharray:none"
           inkscape:label="none"
           id="path8083" />
        <path
           d="M 38.0618,0 V -40"
           style="fill:none;stroke:#b2b2b2;stroke-width:0.16;stroke-linecap:round;stroke-linejoin:round;stroke-dasharray:none"
           inkscape:label="none"
           id="path8085" />
        <path
           d="M 39.08485,0 V -40"
           style="fill:none;stroke:#b2b2b2;stroke-width:0.16;stroke-linecap:round;stroke-linejoin:round;stroke-dasharray:none"
           inkscape:label="none"
           id="path8087" />
        <path
           d="M 20,-1 V 1"
           style="fill:none;stroke:#4c4c4c;stroke-width:0.457143;stroke-linecap:round;stroke-linejoin:round;stroke-dasharray:none"
           inkscape:label="none"
           id="path8089" />
        <g
           inkscape:label="Layer 1"
           inkscape:groupmode="layer"
           id="g8117"
           transform="matrix(0.353918,0,0,0.353918,-121.56707,-194.19798)">
          <g
             transform="matrix(1.33333,0,0,1.33333,391.754,554.36)"
             ns4:version="1.1.0"
             ns4:texconverter="pdflatex"
             ns4:pdfconverter="inkscape"
             ns4:text=" $10^{1}$"
             ns4:preamble="/home/fernando/.config/inkscape/extensions/inkscapeMadeEasy/basicLatexPackages.tex"
             ns4:scale="1.0"
             ns4:alignment="middle center"
             ns4:inkscapeversion="1.0.1"
             ns4:jacobian_sqrt="1.33333"
             id="g8115">
            <defs
               id="id-365a8bb0-3fc7-42a3-9d72-0a2bdf736a04" />
            <g
               id="id-c701177b-7534-4c43-be5b-7aa91d4933c6"
               transform="translate(-149.603,-126.524)">
              <g
                 style="fill:#000000;fill-opacity:1"
                 id="id-768a75d5-accd-448c-bf73-f4881baf770a">
                <g
                   transform="translate(148.712,134.765)"
                   id="g8104">
                  <path
                     style="stroke:none"
                     d="m 2.9375,-6.375 c 0,-0.25 0,-0.265625 -0.234375,-0.265625 C 2.078125,-6 1.203125,-6 0.890625,-6 v 0.3125 c 0.203125,0 0.78125,0 1.296875,-0.265625 v 5.171875 c 0,0.359375 -0.03125,0.46875 -0.921875,0.46875 h -0.3125 V 0 c 0.34375,-0.03125 1.203125,-0.03125 1.609375,-0.03125 0.390625,0 1.265625,0 1.609375,0.03125 v -0.3125 h -0.3125 c -0.90625,0 -0.921875,-0.109375 -0.921875,-0.46875 z m 0,0"
                     id="id-aa3bba83-6ec6-4bed-bdde-807b3cbcf15d" />
                </g>
                <g
                   transform="translate(153.693,134.765)"
                   id="g8107">
                  <path
                     style="stroke:none"
                     d="m 4.578125,-3.1875 c 0,-0.796875 -0.046875,-1.59375 -0.390625,-2.328125 -0.453125,-0.96875 -1.28125,-1.125 -1.6875,-1.125 -0.609375,0 -1.328125,0.265625 -1.75,1.1875 -0.3125,0.6875 -0.359375,1.46875 -0.359375,2.265625 0,0.75 0.03125,1.640625 0.453125,2.40625 0.421875,0.796875 1.15625,1 1.640625,1 0.53125,0 1.296875,-0.203125 1.734375,-1.15625 0.3125,-0.6875 0.359375,-1.46875 0.359375,-2.25 z M 2.484375,0 C 2.09375,0 1.5,-0.25 1.328125,-1.203125 1.21875,-1.796875 1.21875,-2.71875 1.21875,-3.3125 c 0,-0.640625 0,-1.296875 0.078125,-1.828125 0.1875,-1.1875 0.9375,-1.28125 1.1875,-1.28125 0.328125,0 0.984375,0.1875 1.171875,1.171875 0.109375,0.5625 0.109375,1.3125 0.109375,1.9375 0,0.75 0,1.421875 -0.109375,2.0625 C 3.5,-0.296875 2.9375,0 2.484375,0 Z m 0,0"
                     id="id-832df3ed-8ccd-4044-aa11-0b8a76e899b1" />
                </g>
              </g>
              <g
                 style="fill:#000000;fill-opacity:1"
                 id="id-147063b7-3423-4e7a-8afa-bdff3e9b2c6f">
                <g
                   transform="translate(158.675,131.149)"
                   id="g8111">
                  <path
                     style="stroke:none"
                     d="m 2.328125,-4.4375 c 0,-0.1875 0,-0.1875 -0.203125,-0.1875 -0.453125,0.4375 -1.078125,0.4375 -1.359375,0.4375 v 0.25 c 0.15625,0 0.625,0 1,-0.1875 v 3.546875 c 0,0.234375 0,0.328125 -0.6875,0.328125 H 0.8125 V 0 c 0.125,0 0.984375,-0.03125 1.234375,-0.03125 0.21875,0 1.09375,0.03125 1.25,0.03125 V -0.25 H 3.03125 c -0.703125,0 -0.703125,-0.09375 -0.703125,-0.328125 z m 0,0"
                     id="id-01db4456-711c-445d-98d5-a1ce99415633" />
                </g>
              </g>
            </g>
          </g>
        </g>
        <path
           d="M 40,0 V -40"
           style="fill:none;stroke:#b2b2b2;stroke-width:0.32;stroke-linecap:round;stroke-linejoin:round;stroke-dasharray:none"
           inkscape:label="none"
           id="path8119" />
        <path
           d="M 40,-1 V 1"
           style="fill:none;stroke:#4c4c4c;stroke-width:0.457143;stroke-linecap:round;stroke-linejoin:round;stroke-dasharray:none"
           inkscape:label="none"
           id="path8121" />
        <g
           inkscape:label="Layer 1"
           inkscape:groupmode="layer"
           id="g8149"
           transform="matrix(0.353918,0,0,0.353918,-101.56702,-194.19798)">
          <g
             transform="matrix(1.33333,0,0,1.33333,391.608,554.36)"
             ns4:version="1.1.0"
             ns4:texconverter="pdflatex"
             ns4:pdfconverter="inkscape"
             ns4:text=" $10^{2}$"
             ns4:preamble="/home/fernando/.config/inkscape/extensions/inkscapeMadeEasy/basicLatexPackages.tex"
             ns4:scale="1.0"
             ns4:alignment="middle center"
             ns4:inkscapeversion="1.0.1"
             ns4:jacobian_sqrt="1.33333"
             id="g8147">
            <defs
               id="id-dd8656c3-fdc8-458a-9098-57e4804bbd8f" />
            <g
               id="id-bdfdb501-5ef2-4462-8b09-6ebd3101275e"
               transform="translate(-149.603,-126.524)">
              <g
                 style="fill:#000000;fill-opacity:1"
                 id="id-85f487be-5e92-4495-af80-6c88bb1dcbb0">
                <g
                   transform="translate(148.712,134.765)"
                   id="g8136">
                  <path
                     style="stroke:none"
                     d="m 2.9375,-6.375 c 0,-0.25 0,-0.265625 -0.234375,-0.265625 C 2.078125,-6 1.203125,-6 0.890625,-6 v 0.3125 c 0.203125,0 0.78125,0 1.296875,-0.265625 v 5.171875 c 0,0.359375 -0.03125,0.46875 -0.921875,0.46875 h -0.3125 V 0 c 0.34375,-0.03125 1.203125,-0.03125 1.609375,-0.03125 0.390625,0 1.265625,0 1.609375,0.03125 v -0.3125 h -0.3125 c -0.90625,0 -0.921875,-0.109375 -0.921875,-0.46875 z m 0,0"
                     id="id-f89c4d94-98a2-4cc6-b26d-7a6f33a33607" />
                </g>
                <g
                   transform="translate(153.693,134.765)"
                   id="g8139">
                  <path
                     style="stroke:none"
                     d="m 4.578125,-3.1875 c 0,-0.796875 -0.046875,-1.59375 -0.390625,-2.328125 -0.453125,-0.96875 -1.28125,-1.125 -1.6875,-1.125 -0.609375,0 -1.328125,0.265625 -1.75,1.1875 -0.3125,0.6875 -0.359375,1.46875 -0.359375,2.265625 0,0.75 0.03125,1.640625 0.453125,2.40625 0.421875,0.796875 1.15625,1 1.640625,1 0.53125,0 1.296875,-0.203125 1.734375,-1.15625 0.3125,-0.6875 0.359375,-1.46875 0.359375,-2.25 z M 2.484375,0 C 2.09375,0 1.5,-0.25 1.328125,-1.203125 1.21875,-1.796875 1.21875,-2.71875 1.21875,-3.3125 c 0,-0.640625 0,-1.296875 0.078125,-1.828125 0.1875,-1.1875 0.9375,-1.28125 1.1875,-1.28125 0.328125,0 0.984375,0.1875 1.171875,1.171875 0.109375,0.5625 0.109375,1.3125 0.109375,1.9375 0,0.75 0,1.421875 -0.109375,2.0625 C 3.5,-0.296875 2.9375,0 2.484375,0 Z m 0,0"
                     id="id-358bfe56-81a3-46b5-a5f0-a496da8282d3" />
                </g>
              </g>
              <g
                 style="fill:#000000;fill-opacity:1"
                 id="id-bba778b8-d7a4-4dfb-b64b-b56db54f1fa7">
                <g
                   transform="translate(158.675,131.149)"
                   id="g8143">
                  <path
                     style="stroke:none"
                     d="M 3.515625,-1.265625 H 3.28125 c -0.015625,0.15625 -0.09375,0.5625 -0.1875,0.625 C 3.046875,-0.59375 2.515625,-0.59375 2.40625,-0.59375 H 1.125 c 0.734375,-0.640625 0.984375,-0.84375 1.390625,-1.171875 0.515625,-0.40625 1,-0.84375 1,-1.5 0,-0.84375 -0.734375,-1.359375 -1.625,-1.359375 -0.859375,0 -1.453125,0.609375 -1.453125,1.25 0,0.34375 0.296875,0.390625 0.375,0.390625 0.15625,0 0.359375,-0.125 0.359375,-0.375 0,-0.125 -0.046875,-0.375 -0.40625,-0.375 C 0.984375,-4.21875 1.453125,-4.375 1.78125,-4.375 c 0.703125,0 1.0625,0.546875 1.0625,1.109375 0,0.609375 -0.4375,1.078125 -0.65625,1.328125 L 0.515625,-0.265625 C 0.4375,-0.203125 0.4375,-0.1875 0.4375,0 h 2.875 z m 0,0"
                     id="id-e225e50d-3603-4876-b826-faeaceb806a1" />
                </g>
              </g>
            </g>
          </g>
        </g>
        <g
           inkscape:label="Layer 1"
           inkscape:groupmode="layer"
           id="g8164"
           transform="matrix(0.353918,0,0,0.353918,-164.55492,-198.19422)">
          <g
             transform="matrix(1.33333,0,0,1.33333,397.208,555.427)"
             ns4:version="1.1.0"
             ns4:texconverter="pdflatex"
             ns4:pdfconverter="inkscape"
             ns4:text=" $0$"
             ns4:preamble="/home/fernando/.config/inkscape/extensions/inkscapeMadeEasy/basicLatexPackages.tex"
             ns4:scale="1.0"
             ns4:alignment="middle center"
             ns4:inkscapeversion="1.0.1"
             ns4:jacobian_sqrt="1.33333"
             id="g8162">
            <defs
               id="id-3fe992aa-6980-4841-a27f-5a8dc2e88093" />
            <g
               id="id-97fe2c8b-a2b4-48e5-962e-9c2e8f64bb8a"
               transform="translate(-149.103,-128.124)">
              <g
                 style="fill:#000000;fill-opacity:1"
                 id="id-1c293d0e-6417-4e64-82e7-5377425ead22">
                <g
                   transform="translate(148.712,134.765)"
                   id="g8158">
                  <path
                     style="stroke:none"
                     d="m 4.578125,-3.1875 c 0,-0.796875 -0.046875,-1.59375 -0.390625,-2.328125 -0.453125,-0.96875 -1.28125,-1.125 -1.6875,-1.125 -0.609375,0 -1.328125,0.265625 -1.75,1.1875 -0.3125,0.6875 -0.359375,1.46875 -0.359375,2.265625 0,0.75 0.03125,1.640625 0.453125,2.40625 0.421875,0.796875 1.15625,1 1.640625,1 0.53125,0 1.296875,-0.203125 1.734375,-1.15625 0.3125,-0.6875 0.359375,-1.46875 0.359375,-2.25 z M 2.484375,0 C 2.09375,0 1.5,-0.25 1.328125,-1.203125 1.21875,-1.796875 1.21875,-2.71875 1.21875,-3.3125 c 0,-0.640625 0,-1.296875 0.078125,-1.828125 0.1875,-1.1875 0.9375,-1.28125 1.1875,-1.28125 0.328125,0 0.984375,0.1875 1.171875,1.171875 0.109375,0.5625 0.109375,1.3125 0.109375,1.9375 0,0.75 0,1.421875 -0.109375,2.0625 C 3.5,-0.296875 2.9375,0 2.484375,0 Z m 0,0"
                     id="id-5a20fd7d-35f9-4c78-adfc-588e226210db" />
                </g>
              </g>
            </g>
          </g>
        </g>
        <path
           d="M -20,-20 H 40"
           style="fill:none;stroke:#b2b2b2;stroke-width:0.32;stroke-linecap:round;stroke-linejoin:round;stroke-dasharray:none"
           inkscape:label="none"
           id="path8166" />
        <path
           d="m -21,-20 h 2"
           style="fill:none;stroke:#4c4c4c;stroke-width:0.457143;stroke-linecap:round;stroke-linejoin:round;stroke-dasharray:none"
           inkscape:label="none"
           id="path8168" />
        <g
           inkscape:label="Layer 1"
           inkscape:groupmode="layer"
           id="g8183"
           transform="matrix(0.353918,0,0,0.353918,-164.34139,-218.19428)">
          <g
             transform="matrix(1.33333,0,0,1.33333,397.813,555.573)"
             ns4:version="1.1.0"
             ns4:texconverter="pdflatex"
             ns4:pdfconverter="inkscape"
             ns4:text=" $1$"
             ns4:preamble="/home/fernando/.config/inkscape/extensions/inkscapeMadeEasy/basicLatexPackages.tex"
             ns4:scale="1.0"
             ns4:alignment="middle center"
             ns4:inkscapeversion="1.0.1"
             ns4:jacobian_sqrt="1.33333"
             id="g8181">
            <defs
               id="id-28c68f53-eb0d-4a48-be04-866153850520" />
            <g
               id="id-910a3a98-8d9e-4439-8476-0a2242de4d74"
               transform="translate(-149.603,-128.124)">
              <g
                 style="fill:#000000;fill-opacity:1"
                 id="id-31b18d4d-38fc-48ee-845e-f85eb0020aec">
                <g
                   transform="translate(148.712,134.765)"
                   id="g8177">
                  <path
                     style="stroke:none"
                     d="m 2.9375,-6.375 c 0,-0.25 0,-0.265625 -0.234375,-0.265625 C 2.078125,-6 1.203125,-6 0.890625,-6 v 0.3125 c 0.203125,0 0.78125,0 1.296875,-0.265625 v 5.171875 c 0,0.359375 -0.03125,0.46875 -0.921875,0.46875 h -0.3125 V 0 c 0.34375,-0.03125 1.203125,-0.03125 1.609375,-0.03125 0.390625,0 1.265625,0 1.609375,0.03125 v -0.3125 h -0.3125 c -0.90625,0 -0.921875,-0.109375 -0.921875,-0.46875 z m 0,0"
                     id="id-747e642a-24dd-4166-abfa-139d1c7eba5b" />
                </g>
              </g>
            </g>
          </g>
        </g>
        <path
           d="M -20,-40 H 40"
           style="fill:none;stroke:#b2b2b2;stroke-width:0.32;stroke-linecap:round;stroke-linejoin:round;stroke-dasharray:none"
           inkscape:label="none"
           id="path8185" />
        <path
           d="m -21,-40 h 2"
           style="fill:none;stroke:#4c4c4c;stroke-width:0.457143;stroke-linecap:round;stroke-linejoin:round;stroke-dasharray:none"
           inkscape:label="none"
           id="path8187" />
        <g
           inkscape:label="Layer 1"
           inkscape:groupmode="layer"
           id="g8202"
           transform="matrix(0.353918,0,0,0.353918,-164.50354,-238.19428)">
          <g
             transform="matrix(1.33333,0,0,1.33333,397.354,555.573)"
             ns4:version="1.1.0"
             ns4:texconverter="pdflatex"
             ns4:pdfconverter="inkscape"
             ns4:text=" $2$"
             ns4:preamble="/home/fernando/.config/inkscape/extensions/inkscapeMadeEasy/basicLatexPackages.tex"
             ns4:scale="1.0"
             ns4:alignment="middle center"
             ns4:inkscapeversion="1.0.1"
             ns4:jacobian_sqrt="1.33333"
             id="g8200">
            <defs
               id="id-77be555e-d122-4ee6-8489-6f1803424304" />
            <g
               id="id-eff3c21a-b1c1-4ea2-a200-6bb343bf9a5b"
               transform="translate(-149.212,-128.124)">
              <g
                 style="fill:#000000;fill-opacity:1"
                 id="id-9cdc4b70-8ae2-4006-8d72-06d4ebe8cd65">
                <g
                   transform="translate(148.712,134.765)"
                   id="g8196">
                  <path
                     style="stroke:none"
                     d="m 1.265625,-0.765625 1.0625,-1.03125 c 1.546875,-1.375 2.140625,-1.90625 2.140625,-2.90625 0,-1.140625 -0.890625,-1.9375 -2.109375,-1.9375 -1.125,0 -1.859375,0.921875 -1.859375,1.8125 0,0.546875 0.5,0.546875 0.53125,0.546875 0.171875,0 0.515625,-0.109375 0.515625,-0.53125 0,-0.25 -0.1875,-0.515625 -0.53125,-0.515625 -0.078125,0 -0.09375,0 -0.125,0.015625 0.21875,-0.65625 0.765625,-1.015625 1.34375,-1.015625 0.90625,0 1.328125,0.8125 1.328125,1.625 C 3.5625,-3.90625 3.078125,-3.125 2.515625,-2.5 l -1.90625,2.125 C 0.5,-0.265625 0.5,-0.234375 0.5,0 H 4.203125 L 4.46875,-1.734375 H 4.234375 C 4.171875,-1.4375 4.109375,-1 4,-0.84375 3.9375,-0.765625 3.28125,-0.765625 3.0625,-0.765625 Z m 0,0"
                     id="id-4d396b50-0b28-4907-9321-991609779477" />
                </g>
              </g>
            </g>
          </g>
        </g>
      </g>
      <g
         inkscape:label="Axis"
         id="g8318">
        <path
           d="M -20,0 H 48"
           style="fill:none;stroke:#4c4c4c;stroke-width:0.457143;stroke-linecap:round;stroke-linejoin:round;stroke-dasharray:none;marker-end:url(#ArrowAxisEnd)"
           inkscape:label="Xaxis"
           id="path8206" />
        <g
           inkscape:label="Layer 1"
           inkscape:groupmode="layer"
           id="g8261"
           transform="matrix(0.442397,0,0,0.442397,-119.52375,-242.7975)">
          <g
             transform="matrix(1.33333,0,0,1.33333,375.659,553.344)"
             ns4:version="1.1.0"
             ns4:texconverter="pdflatex"
             ns4:pdfconverter="inkscape"
             ns4:text=" $\\omega (\\si{\\rad\\per\\second})$"
             ns4:preamble="/home/fernando/.config/inkscape/extensions/inkscapeMadeEasy/basicLatexPackages.tex"
             ns4:scale="1.0"
             ns4:alignment="middle center"
             ns4:inkscapeversion="1.0.1"
             ns4:jacobian_sqrt="1.33333"
             id="g8259">
            <defs
               id="id-43385138-ca47-4d63-b8d9-a25a39cf7926" />
            <g
               id="id-f7597329-b7f0-4a2c-926b-118a9fcd1894"
               transform="translate(-148.837,-127.281)">
              <g
                 style="fill:#000000;fill-opacity:1"
                 id="id-176c01fd-a78f-4189-8197-47381358ddb1">
                <g
                   transform="translate(148.712,134.765)"
                   id="g8231">
                  <path
                     style="stroke:none"
                     d="m 6.03125,-3.703125 c 0,-0.453125 -0.171875,-0.703125 -0.40625,-0.703125 -0.25,0 -0.515625,0.234375 -0.515625,0.46875 0,0.09375 0.046875,0.203125 0.140625,0.296875 0.171875,0.15625 0.359375,0.421875 0.359375,0.84375 0,0.390625 -0.203125,0.96875 -0.5,1.421875 C 4.8125,-0.953125 4.4375,-0.609375 3.96875,-0.609375 3.40625,-0.609375 3.09375,-0.96875 3,-1.5 c 0.109375,-0.265625 0.34375,-0.90625 0.34375,-1.1875 0,-0.109375 -0.046875,-0.21875 -0.1875,-0.21875 -0.078125,0 -0.1875,0.03125 -0.265625,0.171875 C 2.78125,-2.53125 2.65625,-1.890625 2.65625,-1.53125 2.328125,-1.0625 1.9375,-0.609375 1.3125,-0.609375 c -0.671875,0 -0.875,-0.59375 -0.875,-1.140625 0,-1.25 1.015625,-2.296875 1.015625,-2.421875 0,-0.109375 -0.078125,-0.1875 -0.1875,-0.1875 -0.125,0 -0.203125,0.125 -0.265625,0.21875 -0.5,0.734375 -0.875,1.921875 -0.875,2.828125 0,0.6875 0.21875,1.421875 1.046875,1.421875 0.703125,0 1.171875,-0.5 1.53125,-1.046875 0.09375,0.578125 0.484375,1.046875 1.09375,1.046875 0.78125,0 1.25,-0.609375 1.609375,-1.359375 0.25,-0.484375 0.625,-1.84375 0.625,-2.453125 z m 0,0"
                     id="id-126170f5-7d4c-42bd-9b1f-9f2ed977159d" />
                </g>
              </g>
              <g
                 style="fill:#000000;fill-opacity:1"
                 id="id-85be5794-0ecc-45f1-8484-1111a47ef2fe">
                <g
                   transform="translate(155.271,134.765)"
                   id="g8235">
                  <path
                     style="stroke:none"
                     d="m 3.296875,2.390625 c 0,-0.03125 0,-0.046875 -0.171875,-0.21875 C 1.890625,0.921875 1.5625,-0.96875 1.5625,-2.5 c 0,-1.734375 0.375,-3.46875 1.609375,-4.703125 0.125,-0.125 0.125,-0.140625 0.125,-0.171875 0,-0.078125 -0.03125,-0.109375 -0.09375,-0.109375 -0.109375,0 -1,0.6875 -1.59375,1.953125 -0.5,1.09375 -0.625,2.203125 -0.625,3.03125 0,0.78125 0.109375,1.984375 0.65625,3.125 C 2.25,1.84375 3.09375,2.5 3.203125,2.5 c 0.0625,0 0.09375,-0.03125 0.09375,-0.109375 z m 0,0"
                     id="id-7d395d2f-15ff-47bd-821d-1482edf44fb1" />
                </g>
                <g
                   transform="translate(159.145,134.765)"
                   id="g8238">
                  <path
                     style="stroke:none"
                     d="M 1.671875,-3.3125 V -4.40625 L 0.28125,-4.296875 v 0.3125 c 0.703125,0 0.78125,0.0625 0.78125,0.5625 V -0.75 c 0,0.4375 -0.109375,0.4375 -0.78125,0.4375 V 0 c 0.390625,-0.015625 0.859375,-0.03125 1.140625,-0.03125 0.390625,0 0.859375,0 1.265625,0.03125 V -0.3125 H 2.46875 c -0.734375,0 -0.75,-0.109375 -0.75,-0.46875 V -2.3125 c 0,-0.984375 0.421875,-1.875 1.171875,-1.875 0.0625,0 0.09375,0 0.109375,0.015625 -0.03125,0 -0.234375,0.125 -0.234375,0.390625 0,0.265625 0.21875,0.421875 0.4375,0.421875 0.171875,0 0.421875,-0.125 0.421875,-0.4375 0,-0.3125 -0.3125,-0.609375 -0.734375,-0.609375 -0.734375,0 -1.09375,0.671875 -1.21875,1.09375 z m 0,0"
                     id="id-f6f009e3-364f-45f3-b310-7dfbeae488da" />
                </g>
                <g
                   transform="translate(163.048,134.765)"
                   id="g8241">
                  <path
                     style="stroke:none"
                     d="m 3.3125,-0.75 c 0.046875,0.390625 0.3125,0.8125 0.78125,0.8125 0.21875,0 0.828125,-0.140625 0.828125,-0.953125 v -0.5625 h -0.25 v 0.5625 c 0,0.578125 -0.25,0.640625 -0.359375,0.640625 -0.328125,0 -0.375,-0.453125 -0.375,-0.5 v -1.984375 c 0,-0.421875 0,-0.8125 -0.359375,-1.1875 C 3.1875,-4.3125 2.6875,-4.46875 2.21875,-4.46875 c -0.828125,0 -1.515625,0.46875 -1.515625,1.125 0,0.296875 0.203125,0.46875 0.46875,0.46875 0.28125,0 0.453125,-0.203125 0.453125,-0.453125 0,-0.125 -0.046875,-0.453125 -0.515625,-0.453125 C 1.390625,-4.140625 1.875,-4.25 2.1875,-4.25 c 0.5,0 1.0625,0.390625 1.0625,1.28125 v 0.359375 c -0.515625,0.03125 -1.203125,0.0625 -1.828125,0.359375 -0.75,0.34375 -1,0.859375 -1,1.296875 0,0.8125 0.96875,1.0625 1.59375,1.0625 0.65625,0 1.109375,-0.40625 1.296875,-0.859375 z M 3.25,-2.390625 v 1 c 0,0.9375 -0.71875,1.28125 -1.171875,1.28125 -0.484375,0 -0.890625,-0.34375 -0.890625,-0.84375 0,-0.546875 0.421875,-1.375 2.0625,-1.4375 z m 0,0"
                     id="id-37a72cde-1e88-4250-8061-6e22907a15ea" />
                </g>
                <g
                   transform="translate(168.029,134.765)"
                   id="g8244">
                  <path
                     style="stroke:none"
                     d="m 3.78125,-0.546875 v 0.65625 L 5.25,0 v -0.3125 c -0.6875,0 -0.78125,-0.0625 -0.78125,-0.5625 V -6.921875 L 3.046875,-6.8125 V -6.5 c 0.6875,0 0.765625,0.0625 0.765625,0.5625 v 2.15625 c -0.28125,-0.359375 -0.71875,-0.625 -1.25,-0.625 -1.171875,0 -2.21875,0.984375 -2.21875,2.265625 0,1.265625 0.96875,2.25 2.109375,2.25 0.640625,0 1.078125,-0.34375 1.328125,-0.65625 z m 0,-2.671875 v 2.046875 c 0,0.171875 0,0.1875 -0.109375,0.359375 C 3.375,-0.328125 2.9375,-0.109375 2.5,-0.109375 2.046875,-0.109375 1.6875,-0.375 1.453125,-0.75 1.203125,-1.15625 1.171875,-1.71875 1.171875,-2.140625 1.171875,-2.5 1.1875,-3.09375 1.46875,-3.546875 1.6875,-3.859375 2.0625,-4.1875 2.609375,-4.1875 c 0.34375,0 0.765625,0.15625 1.0625,0.59375 0.109375,0.171875 0.109375,0.1875 0.109375,0.375 z m 0,0"
                     id="id-0ced90f0-a5c0-4a31-832b-8a9acb6905be" />
                </g>
              </g>
              <g
                 style="fill:#000000;fill-opacity:1"
                 id="id-d1a652f2-d8e2-49c9-9110-91d8b169bfa6">
                <g
                   transform="translate(173.564,134.765)"
                   id="g8248">
                  <path
                     style="stroke:none"
                     d="m 4.375,-7.09375 c 0.046875,-0.140625 0.046875,-0.171875 0.046875,-0.1875 0,-0.109375 -0.078125,-0.203125 -0.1875,-0.203125 -0.078125,0 -0.140625,0.03125 -0.171875,0.09375 l -3.46875,9.5 C 0.546875,2.25 0.546875,2.28125 0.546875,2.296875 0.546875,2.40625 0.640625,2.5 0.75,2.5 0.875,2.5 0.90625,2.421875 0.96875,2.25 Z m 0,0"
                     id="id-ffa97e90-3d97-43f0-b573-60adbb16cb46" />
                </g>
              </g>
              <g
                 style="fill:#000000;fill-opacity:1"
                 id="id-df21b59a-62ff-479f-a1e3-58a45db74658">
                <g
                   transform="translate(178.545,134.765)"
                   id="g8252">
                  <path
                     style="stroke:none"
                     d="m 2.078125,-1.9375 c 0.21875,0.046875 1.03125,0.203125 1.03125,0.921875 0,0.5 -0.34375,0.90625 -1.125,0.90625 -0.84375,0 -1.203125,-0.5625 -1.390625,-1.421875 C 0.5625,-1.65625 0.5625,-1.6875 0.453125,-1.6875 c -0.125,0 -0.125,0.0625 -0.125,0.234375 V -0.125 c 0,0.171875 0,0.234375 0.109375,0.234375 0.046875,0 0.0625,-0.015625 0.25,-0.203125 0.015625,-0.015625 0.015625,-0.03125 0.203125,-0.21875 0.4375,0.40625 0.890625,0.421875 1.09375,0.421875 1.140625,0 1.609375,-0.671875 1.609375,-1.390625 0,-0.515625 -0.296875,-0.828125 -0.421875,-0.9375 C 2.84375,-2.546875 2.453125,-2.625 2.03125,-2.703125 1.46875,-2.8125 0.8125,-2.9375 0.8125,-3.515625 c 0,-0.359375 0.25,-0.765625 1.109375,-0.765625 1.09375,0 1.15625,0.90625 1.171875,1.203125 0,0.09375 0.09375,0.09375 0.109375,0.09375 0.140625,0 0.140625,-0.046875 0.140625,-0.234375 v -1.015625 c 0,-0.15625 0,-0.234375 -0.109375,-0.234375 -0.046875,0 -0.078125,0 -0.203125,0.125 -0.03125,0.03125 -0.125,0.125 -0.171875,0.15625 -0.375,-0.28125 -0.78125,-0.28125 -0.9375,-0.28125 -1.21875,0 -1.59375,0.671875 -1.59375,1.234375 0,0.34375 0.15625,0.625 0.421875,0.84375 0.328125,0.25 0.609375,0.3125 1.328125,0.453125 z m 0,0"
                     id="id-c883ce0c-e8fb-4ce9-822a-3b1d1318dfd7" />
                </g>
                <g
                   transform="translate(182.474,134.765)"
                   id="g8255">
                  <path
                     style="stroke:none"
                     d="m 2.875,-2.5 c 0,-0.765625 -0.109375,-1.96875 -0.65625,-3.109375 -0.59375,-1.21875 -1.453125,-1.875 -1.546875,-1.875 -0.0625,0 -0.109375,0.046875 -0.109375,0.109375 0,0.03125 0,0.046875 0.1875,0.234375 0.984375,0.984375 1.546875,2.5625 1.546875,4.640625 0,1.71875 -0.359375,3.46875 -1.59375,4.71875 C 0.5625,2.34375 0.5625,2.359375 0.5625,2.390625 0.5625,2.453125 0.609375,2.5 0.671875,2.5 0.765625,2.5 1.671875,1.8125 2.25,0.546875 2.765625,-0.546875 2.875,-1.65625 2.875,-2.5 Z m 0,0"
                     id="id-6b1d01ca-32ae-41ac-b0ac-8e466b2d2cd4" />
                </g>
              </g>
            </g>
          </g>
        </g>
        <path
           d="M -20,0 V -52"
           style="fill:none;stroke:#4c4c4c;stroke-width:0.457143;stroke-linecap:round;stroke-linejoin:round;stroke-dasharray:none;marker-end:url(#ArrowAxisEnd)"
           inkscape:label="Yaxis"
           id="path8263" />
        <g
           inkscape:label="Layer 1"
           inkscape:groupmode="layer"
           id="g8316"
           transform="matrix(0.442397,0,0,0.442397,-185.7478,-296.7975)">
          <g
             transform="matrix(1.33333,0,0,1.33333,379.18,553.344)"
             ns4:version="1.1.0"
             ns4:texconverter="pdflatex"
             ns4:pdfconverter="inkscape"
             ns4:text=" $|H(j\\omega)| $"
             ns4:preamble="/home/fernando/.config/inkscape/extensions/inkscapeMadeEasy/basicLatexPackages.tex"
             ns4:scale="1.0"
             ns4:alignment="middle center"
             ns4:inkscapeversion="1.0.1"
             ns4:jacobian_sqrt="1.33333"
             id="g8314">
            <defs
               id="id-506206d3-4441-4ad1-ba1c-786862fe38e3" />
            <g
               id="id-d2819449-313d-4486-b763-a739a0eb0c3b"
               transform="translate(-149.9,-127.281)">
              <g
                 style="fill:#000000;fill-opacity:1"
                 id="id-f31364e3-da67-4159-86f4-d7ed5878ef41">
                <g
                   transform="translate(148.712,134.765)"
                   id="g8286">
                  <path
                     style="stroke:none"
                     d="m 1.578125,-7.125 c 0,-0.171875 0,-0.359375 -0.1875,-0.359375 -0.203125,0 -0.203125,0.1875 -0.203125,0.359375 v 9.265625 c 0,0.171875 0,0.359375 0.203125,0.359375 0.1875,0 0.1875,-0.1875 0.1875,-0.359375 z m 0,0"
                     id="id-88b5eccf-3f7b-42bb-a658-14031d659cb0" />
                </g>
              </g>
              <g
                 style="fill:#000000;fill-opacity:1"
                 id="id-a5bd2664-53cd-44cc-8984-93e54c8ade67">
                <g
                   transform="translate(151.48,134.765)"
                   id="g8290">
                  <path
                     style="stroke:none"
                     d="M 7.609375,-6.046875 C 7.703125,-6.40625 7.71875,-6.5 8.4375,-6.5 c 0.265625,0 0.34375,0 0.34375,-0.203125 0,-0.109375 -0.109375,-0.109375 -0.140625,-0.109375 -0.28125,0 -1,0.03125 -1.28125,0.03125 -0.28125,0 -0.984375,-0.03125 -1.28125,-0.03125 -0.078125,0 -0.1875,0 -0.1875,0.203125 0,0.109375 0.09375,0.109375 0.28125,0.109375 0.015625,0 0.203125,0 0.375,0.015625 0.1875,0.03125 0.265625,0.03125 0.265625,0.171875 0,0.03125 0,0.046875 -0.03125,0.1875 L 6.1875,-3.703125 H 3.140625 l 0.59375,-2.34375 C 3.8125,-6.40625 3.84375,-6.5 4.5625,-6.5 c 0.265625,0 0.34375,0 0.34375,-0.203125 0,-0.109375 -0.109375,-0.109375 -0.140625,-0.109375 -0.28125,0 -1,0.03125 -1.28125,0.03125 -0.28125,0 -0.984375,-0.03125 -1.28125,-0.03125 -0.078125,0 -0.1875,0 -0.1875,0.203125 0,0.109375 0.09375,0.109375 0.28125,0.109375 0.015625,0 0.203125,0 0.375,0.015625 0.171875,0.03125 0.265625,0.03125 0.265625,0.171875 0,0.03125 0,0.0625 -0.03125,0.1875 L 1.5625,-0.78125 c -0.09375,0.390625 -0.109375,0.46875 -0.90625,0.46875 -0.171875,0 -0.265625,0 -0.265625,0.203125 C 0.390625,0 0.515625,0 0.53125,0 0.8125,0 1.515625,-0.03125 1.796875,-0.03125 2,-0.03125 2.21875,-0.015625 2.4375,-0.015625 2.65625,-0.015625 2.875,0 3.078125,0 3.15625,0 3.28125,0 3.28125,-0.203125 3.28125,-0.3125 3.1875,-0.3125 3,-0.3125 c -0.375,0 -0.640625,0 -0.640625,-0.171875 0,-0.0625 0.015625,-0.109375 0.015625,-0.171875 l 0.6875,-2.734375 h 3.03125 c -0.40625,1.65625 -0.640625,2.609375 -0.6875,2.75 C 5.3125,-0.3125 5.125,-0.3125 4.5,-0.3125 c -0.140625,0 -0.234375,0 -0.234375,0.203125 C 4.265625,0 4.390625,0 4.40625,0 4.6875,0 5.390625,-0.03125 5.671875,-0.03125 5.875,-0.03125 6.09375,-0.015625 6.3125,-0.015625 6.53125,-0.015625 6.75,0 6.953125,0 7.03125,0 7.15625,0 7.15625,-0.203125 7.15625,-0.3125 7.0625,-0.3125 6.875,-0.3125 c -0.359375,0 -0.640625,0 -0.640625,-0.171875 0,-0.0625 0.015625,-0.109375 0.03125,-0.171875 z m 0,0"
                     id="id-86f226ae-fc98-499e-af04-a1e73af60a1e" />
                </g>
              </g>
              <g
                 style="fill:#000000;fill-opacity:1"
                 id="id-340456fa-abe4-46ff-b56d-73def3a5f4f4">
                <g
                   transform="translate(160.571,134.765)"
                   id="g8294">
                  <path
                     style="stroke:none"
                     d="m 3.296875,2.390625 c 0,-0.03125 0,-0.046875 -0.171875,-0.21875 C 1.890625,0.921875 1.5625,-0.96875 1.5625,-2.5 c 0,-1.734375 0.375,-3.46875 1.609375,-4.703125 0.125,-0.125 0.125,-0.140625 0.125,-0.171875 0,-0.078125 -0.03125,-0.109375 -0.09375,-0.109375 -0.109375,0 -1,0.6875 -1.59375,1.953125 -0.5,1.09375 -0.625,2.203125 -0.625,3.03125 0,0.78125 0.109375,1.984375 0.65625,3.125 C 2.25,1.84375 3.09375,2.5 3.203125,2.5 c 0.0625,0 0.09375,-0.03125 0.09375,-0.109375 z m 0,0"
                     id="id-11578e47-4eda-4df5-ac6a-9ef19bc11fdf" />
                </g>
              </g>
              <g
                 style="fill:#000000;fill-opacity:1"
                 id="id-3dcbd57c-7a81-439b-a5b5-2abab1a586ae">
                <g
                   transform="translate(164.445,134.765)"
                   id="g8298">
                  <path
                     style="stroke:none"
                     d="m 3.953125,-6.234375 c 0,-0.1875 -0.140625,-0.359375 -0.375,-0.359375 -0.234375,0 -0.53125,0.234375 -0.53125,0.53125 0,0.203125 0.140625,0.359375 0.375,0.359375 0.265625,0 0.53125,-0.265625 0.53125,-0.53125 z m -2,6.734375 c -0.1875,0.75 -0.671875,1.328125 -1.21875,1.328125 -0.0625,0 -0.21875,0 -0.390625,-0.09375 0.296875,-0.0625 0.4375,-0.328125 0.4375,-0.53125 0,-0.15625 -0.109375,-0.34375 -0.375,-0.34375 -0.25,0 -0.53125,0.203125 -0.53125,0.5625 0,0.40625 0.390625,0.625 0.875,0.625 0.703125,0 1.625,-0.53125 1.875,-1.515625 L 3.53125,-3.125 c 0.0625,-0.1875 0.0625,-0.328125 0.0625,-0.359375 0,-0.578125 -0.421875,-0.921875 -0.921875,-0.921875 -1.015625,0 -1.578125,1.453125 -1.578125,1.53125 0,0.109375 0.09375,0.109375 0.109375,0.109375 0.09375,0 0.109375,-0.015625 0.1875,-0.203125 0.25,-0.609375 0.703125,-1.21875 1.25,-1.21875 0.140625,0 0.3125,0.046875 0.3125,0.453125 0,0.234375 -0.015625,0.34375 -0.0625,0.515625 z m 0,0"
                     id="id-d0c6808c-b21b-439f-a9a2-7b0aad685d7f" />
                </g>
              </g>
              <g
                 style="fill:#000000;fill-opacity:1"
                 id="id-bf5635b2-1f3f-4a88-9a1c-87f34003d025">
                <g
                   transform="translate(169.115,134.765)"
                   id="g8302">
                  <path
                     style="stroke:none"
                     d="m 6.03125,-3.703125 c 0,-0.453125 -0.171875,-0.703125 -0.40625,-0.703125 -0.25,0 -0.515625,0.234375 -0.515625,0.46875 0,0.09375 0.046875,0.203125 0.140625,0.296875 0.171875,0.15625 0.359375,0.421875 0.359375,0.84375 0,0.390625 -0.203125,0.96875 -0.5,1.421875 C 4.8125,-0.953125 4.4375,-0.609375 3.96875,-0.609375 3.40625,-0.609375 3.09375,-0.96875 3,-1.5 c 0.109375,-0.265625 0.34375,-0.90625 0.34375,-1.1875 0,-0.109375 -0.046875,-0.21875 -0.1875,-0.21875 -0.078125,0 -0.1875,0.03125 -0.265625,0.171875 C 2.78125,-2.53125 2.65625,-1.890625 2.65625,-1.53125 2.328125,-1.0625 1.9375,-0.609375 1.3125,-0.609375 c -0.671875,0 -0.875,-0.59375 -0.875,-1.140625 0,-1.25 1.015625,-2.296875 1.015625,-2.421875 0,-0.109375 -0.078125,-0.1875 -0.1875,-0.1875 -0.125,0 -0.203125,0.125 -0.265625,0.21875 -0.5,0.734375 -0.875,1.921875 -0.875,2.828125 0,0.6875 0.21875,1.421875 1.046875,1.421875 0.703125,0 1.171875,-0.5 1.53125,-1.046875 0.09375,0.578125 0.484375,1.046875 1.09375,1.046875 0.78125,0 1.25,-0.609375 1.609375,-1.359375 0.25,-0.484375 0.625,-1.84375 0.625,-2.453125 z m 0,0"
                     id="id-ea6fc6c7-922a-433a-bb46-44bccde656c1" />
                </g>
              </g>
              <g
                 style="fill:#000000;fill-opacity:1"
                 id="id-d362128b-773f-44e8-8aef-528b10a10626">
                <g
                   transform="translate(175.677,134.765)"
                   id="g8306">
                  <path
                     style="stroke:none"
                     d="m 2.875,-2.5 c 0,-0.765625 -0.109375,-1.96875 -0.65625,-3.109375 -0.59375,-1.21875 -1.453125,-1.875 -1.546875,-1.875 -0.0625,0 -0.109375,0.046875 -0.109375,0.109375 0,0.03125 0,0.046875 0.1875,0.234375 0.984375,0.984375 1.546875,2.5625 1.546875,4.640625 0,1.71875 -0.359375,3.46875 -1.59375,4.71875 C 0.5625,2.34375 0.5625,2.359375 0.5625,2.390625 0.5625,2.453125 0.609375,2.5 0.671875,2.5 0.765625,2.5 1.671875,1.8125 2.25,0.546875 2.765625,-0.546875 2.875,-1.65625 2.875,-2.5 Z m 0,0"
                     id="id-24a334e3-8e6d-434d-a05b-573b1718bac2" />
                </g>
              </g>
              <g
                 style="fill:#000000;fill-opacity:1"
                 id="id-fb07c4c7-a832-472d-8402-855c3776710c">
                <g
                   transform="translate(179.551,134.765)"
                   id="g8310">
                  <path
                     style="stroke:none"
                     d="m 1.578125,-7.125 c 0,-0.171875 0,-0.359375 -0.1875,-0.359375 -0.203125,0 -0.203125,0.1875 -0.203125,0.359375 v 9.265625 c 0,0.171875 0,0.359375 0.203125,0.359375 0.1875,0 0.1875,-0.1875 0.1875,-0.359375 z m 0,0"
                     id="id-e82fe1b4-64db-4f8e-8712-b4a138b1676e" />
                </g>
              </g>
            </g>
          </g>
        </g>
      </g>
    </g>
    <path
       d="m 350,489.79798 0.60606,-0.0306 0.60606,-0.0353 0.60606,-0.0407 0.60606,-0.0471 0.60606,-0.0544 0.60606,-0.0629 0.60606,-0.0728 0.60606,-0.0843 0.60607,-0.0978 0.60606,-0.11358 0.60606,-0.13213 0.60606,-0.15401 0.60606,-0.17989 0.60606,-0.21066 0.60606,-0.2474 0.60606,-0.29159 0.60606,-0.34505 0.60606,-0.41032 0.60606,-0.49074 0.60606,-0.59099 0.60606,-0.71765 0.60606,-0.88031 0.60606,-1.0933 0.60606,-1.37894 0.60607,-1.77343 0.60606,-2.33887 0.60606,-3.18901 0.60606,-4.55137 L 367.57576,470 h 0.60606 0.60606 0.60606 0.60606 0.60606 0.60606 l 0.60606,1.53188 0.60606,11.71328 0.60606,6.93781 0.60606,4.55137 0.60606,3.18901 0.60606,2.33887 0.60607,1.77343 0.60606,1.37894 0.60606,1.0933 0.60606,0.88031 0.60606,0.71765 0.60606,0.59099 0.60606,0.49074 0.60606,0.41032 0.60606,0.34505 0.60606,0.29159 0.60606,0.2474 0.60606,0.21066 0.60606,0.17989 0.60606,0.15401 0.60606,0.13213 0.60606,0.11358 0.60607,0.0978 0.60606,0.0843 0.60606,0.0728 0.60606,0.0629 0.60606,0.0544 0.60606,0.0471 0.60606,0.0407 0.60606,0.0353 0.60606,0.0306 0.60606,0.0265 0.60606,0.023 0.60606,0.02 0.60606,0.0173 0.60606,0.0151 0.60606,0.0131 0.60606,0.0114 0.60606,0.01 0.60607,0.009 0.60606,0.007 0.60606,0.006 0.60606,0.006 0.60606,0.005 0.60606,0.004 0.60606,0.004 0.60606,0.003 0.60606,0.003 0.60606,0.002 0.60606,0.002 0.60606,0.002 0.60606,0.002 0.60606,10e-4 0.60606,0.001 0.60606,10e-4 0.60607,9.1e-4 0.60606,8e-4 0.60606,6.9e-4 0.60606,6e-4 0.60606,5.2e-4 0.60606,4.6e-4 0.60606,4e-4 0.60606,3.4e-4 0.60606,3e-4"
       style="fill:none;stroke:#0000ff;stroke-width:0.533333;stroke-linecap:round;stroke-linejoin:round;stroke-dasharray:none"
       inkscape:label="none"
       id="path8322" />
  </g>
  <g
     inkscape:label="Layer 1"
     inkscape:groupmode="layer"
     id="g9501"
     transform="translate(350.000000 510.000000) translate(-176.958780 -247.742193) scale(0.442397 0.442397)  " />
  <g
     inkscape:label="Layer 1"
     inkscape:groupmode="layer"
     id="g10461"
     transform="translate(350.000000 510.000000) translate(-176.958671 -247.742747) scale(0.442397 0.442397)  ">
    <g
       transform="matrix(1.33333,0,0,1.33333,325.63942,520.40971)"
       ns4:version="1.1.0"
       ns4:texconverter="pdflatex"
       ns4:pdfconverter="inkscape"
       ns4:text=" $H(s)=\\displaystyle\\frac{1}{s^{2}+1}$"
       ns4:preamble="/home/fernando/.config/inkscape/extensions/inkscapeMadeEasy/basicLatexPackages.tex"
       ns4:scale="1.0"
       ns4:alignment="middle center"
       ns4:inkscapeversion="1.0.1"
       ns4:jacobian_sqrt="1.33333"
       id="g10459"
       inkscape:export-xdpi="829.16949"
       inkscape:export-ydpi="829.16949">
      <defs
         id="id-24923f60-281f-4423-932b-d33794bee99d" />
      <g
         id="id-bbde5f42-4ea9-4dc8-9ab6-50bac9fd9b43"
         transform="translate(-149.103,-124.581)">
        <g
           style="fill:#000000;fill-opacity:1"
           id="id-c3912229-cd51-4353-92a4-a04baca263a9">
          <g
             transform="translate(148.712,137.962)"
             id="g10418">
            <path
               style="stroke:none"
               d="M 7.609375,-6.046875 C 7.703125,-6.40625 7.71875,-6.5 8.4375,-6.5 c 0.265625,0 0.34375,0 0.34375,-0.203125 0,-0.109375 -0.109375,-0.109375 -0.140625,-0.109375 -0.28125,0 -1,0.03125 -1.28125,0.03125 -0.28125,0 -0.984375,-0.03125 -1.28125,-0.03125 -0.078125,0 -0.1875,0 -0.1875,0.203125 0,0.109375 0.09375,0.109375 0.28125,0.109375 0.015625,0 0.203125,0 0.375,0.015625 0.1875,0.03125 0.265625,0.03125 0.265625,0.171875 0,0.03125 0,0.046875 -0.03125,0.1875 L 6.1875,-3.703125 H 3.140625 l 0.59375,-2.34375 C 3.8125,-6.40625 3.84375,-6.5 4.5625,-6.5 c 0.265625,0 0.34375,0 0.34375,-0.203125 0,-0.109375 -0.109375,-0.109375 -0.140625,-0.109375 -0.28125,0 -1,0.03125 -1.28125,0.03125 -0.28125,0 -0.984375,-0.03125 -1.28125,-0.03125 -0.078125,0 -0.1875,0 -0.1875,0.203125 0,0.109375 0.09375,0.109375 0.28125,0.109375 0.015625,0 0.203125,0 0.375,0.015625 0.171875,0.03125 0.265625,0.03125 0.265625,0.171875 0,0.03125 0,0.0625 -0.03125,0.1875 L 1.5625,-0.78125 c -0.09375,0.390625 -0.109375,0.46875 -0.90625,0.46875 -0.171875,0 -0.265625,0 -0.265625,0.203125 C 0.390625,0 0.515625,0 0.53125,0 0.8125,0 1.515625,-0.03125 1.796875,-0.03125 2,-0.03125 2.21875,-0.015625 2.4375,-0.015625 2.65625,-0.015625 2.875,0 3.078125,0 3.15625,0 3.28125,0 3.28125,-0.203125 3.28125,-0.3125 3.1875,-0.3125 3,-0.3125 c -0.375,0 -0.640625,0 -0.640625,-0.171875 0,-0.0625 0.015625,-0.109375 0.015625,-0.171875 l 0.6875,-2.734375 h 3.03125 c -0.40625,1.65625 -0.640625,2.609375 -0.6875,2.75 C 5.3125,-0.3125 5.125,-0.3125 4.5,-0.3125 c -0.140625,0 -0.234375,0 -0.234375,0.203125 C 4.265625,0 4.390625,0 4.40625,0 4.6875,0 5.390625,-0.03125 5.671875,-0.03125 5.875,-0.03125 6.09375,-0.015625 6.3125,-0.015625 6.53125,-0.015625 6.75,0 6.953125,0 7.03125,0 7.15625,0 7.15625,-0.203125 7.15625,-0.3125 7.0625,-0.3125 6.875,-0.3125 c -0.359375,0 -0.640625,0 -0.640625,-0.171875 0,-0.0625 0.015625,-0.109375 0.03125,-0.171875 z m 0,0"
               id="id-48456a9b-74c2-440c-bb2a-b72e8d9a37da" />
          </g>
        </g>
        <g
           style="fill:#000000;fill-opacity:1"
           id="id-ffaa52fa-79f8-4f23-9c87-1bffd0f6350a">
          <g
             transform="translate(157.803,137.962)"
             id="g10422">
            <path
               style="stroke:none"
               d="m 3.296875,2.390625 c 0,-0.03125 0,-0.046875 -0.171875,-0.21875 C 1.890625,0.921875 1.5625,-0.96875 1.5625,-2.5 c 0,-1.734375 0.375,-3.46875 1.609375,-4.703125 0.125,-0.125 0.125,-0.140625 0.125,-0.171875 0,-0.078125 -0.03125,-0.109375 -0.09375,-0.109375 -0.109375,0 -1,0.6875 -1.59375,1.953125 -0.5,1.09375 -0.625,2.203125 -0.625,3.03125 0,0.78125 0.109375,1.984375 0.65625,3.125 C 2.25,1.84375 3.09375,2.5 3.203125,2.5 c 0.0625,0 0.09375,-0.03125 0.09375,-0.109375 z m 0,0"
               id="id-2a9e6566-137a-4ba6-befb-b5c274aa0767" />
          </g>
        </g>
        <g
           style="fill:#000000;fill-opacity:1"
           id="id-d439b406-d5b5-4012-a2df-c21bb0d6c62e">
          <g
             transform="translate(161.678,137.962)"
             id="g10426">
            <path
               style="stroke:none"
               d="M 3.890625,-3.734375 C 3.625,-3.71875 3.421875,-3.5 3.421875,-3.28125 c 0,0.140625 0.09375,0.296875 0.3125,0.296875 0.21875,0 0.453125,-0.171875 0.453125,-0.5625 C 4.1875,-4 3.765625,-4.40625 3,-4.40625 c -1.3125,0 -1.6875,1.015625 -1.6875,1.453125 0,0.78125 0.734375,0.921875 1.03125,0.984375 0.515625,0.109375 1.03125,0.21875 1.03125,0.765625 0,0.25 -0.21875,1.09375 -1.421875,1.09375 -0.140625,0 -0.90625,0 -1.140625,-0.53125 0.390625,0.046875 0.640625,-0.25 0.640625,-0.53125 0,-0.21875 -0.171875,-0.34375 -0.375,-0.34375 -0.265625,0 -0.5625,0.203125 -0.5625,0.65625 0,0.5625 0.578125,0.96875 1.421875,0.96875 1.625,0 2.015625,-1.203125 2.015625,-1.65625 0,-0.359375 -0.1875,-0.609375 -0.3125,-0.71875 -0.265625,-0.28125 -0.5625,-0.34375 -1,-0.421875 -0.359375,-0.078125 -0.75,-0.15625 -0.75,-0.609375 C 1.890625,-3.578125 2.125,-4.1875 3,-4.1875 c 0.25,0 0.75,0.078125 0.890625,0.453125 z m 0,0"
               id="id-65c96b3a-2afc-47c5-b5e0-7232f1f0cd3d" />
          </g>
        </g>
        <g
           style="fill:#000000;fill-opacity:1"
           id="id-98dded9a-fd83-4cb5-a469-17d64ca0a233">
          <g
             transform="translate(166.348,137.962)"
             id="g10430">
            <path
               style="stroke:none"
               d="m 2.875,-2.5 c 0,-0.765625 -0.109375,-1.96875 -0.65625,-3.109375 -0.59375,-1.21875 -1.453125,-1.875 -1.546875,-1.875 -0.0625,0 -0.109375,0.046875 -0.109375,0.109375 0,0.03125 0,0.046875 0.1875,0.234375 0.984375,0.984375 1.546875,2.5625 1.546875,4.640625 0,1.71875 -0.359375,3.46875 -1.59375,4.71875 C 0.5625,2.34375 0.5625,2.359375 0.5625,2.390625 0.5625,2.453125 0.609375,2.5 0.671875,2.5 0.765625,2.5 1.671875,1.8125 2.25,0.546875 2.765625,-0.546875 2.875,-1.65625 2.875,-2.5 Z m 0,0"
               id="id-4f8ca513-18e5-4278-9a73-4c94b0e6ef69" />
          </g>
        </g>
        <g
           style="fill:#000000;fill-opacity:1"
           id="id-11b3c090-2efc-41cb-beed-1501f8b72bb4">
          <g
             transform="translate(172.992,137.962)"
             id="g10434">
            <path
               style="stroke:none"
               d="m 6.84375,-3.265625 c 0.15625,0 0.34375,0 0.34375,-0.1875 C 7.1875,-3.65625 7,-3.65625 6.859375,-3.65625 h -5.96875 c -0.140625,0 -0.328125,0 -0.328125,0.203125 0,0.1875 0.1875,0.1875 0.328125,0.1875 z m 0.015625,1.9375 c 0.140625,0 0.328125,0 0.328125,-0.203125 0,-0.1875 -0.1875,-0.1875 -0.34375,-0.1875 H 0.890625 c -0.140625,0 -0.328125,0 -0.328125,0.1875 0,0.203125 0.1875,0.203125 0.328125,0.203125 z m 0,0"
               id="id-e59712fc-8134-4886-b6b1-ea662f9430a1" />
          </g>
        </g>
        <g
           style="fill:#000000;fill-opacity:1"
           id="id-fed214f3-336d-4aa7-b309-5b906e1d1978">
          <g
             transform="translate(195.359,131.222)"
             id="g10438">
            <path
               style="stroke:none"
               d="m 2.9375,-6.375 c 0,-0.25 0,-0.265625 -0.234375,-0.265625 C 2.078125,-6 1.203125,-6 0.890625,-6 v 0.3125 c 0.203125,0 0.78125,0 1.296875,-0.265625 v 5.171875 c 0,0.359375 -0.03125,0.46875 -0.921875,0.46875 h -0.3125 V 0 c 0.34375,-0.03125 1.203125,-0.03125 1.609375,-0.03125 0.390625,0 1.265625,0 1.609375,0.03125 v -0.3125 h -0.3125 c -0.90625,0 -0.921875,-0.109375 -0.921875,-0.46875 z m 0,0"
               id="id-e247c35e-0655-4827-a73a-6c3712791655" />
          </g>
        </g>
        <path
           style="fill:none;stroke:#000000;stroke-width:0.398;stroke-linecap:butt;stroke-linejoin:miter;stroke-miterlimit:10;stroke-opacity:1"
           d="M -0.00178125,-0.00165625 H 26.295094"
           transform="matrix(1,0,0,-1,184.701,135.471)"
           id="id-29ffa6dc-9b54-4ac8-99b2-9ef282b99cc2" />
        <g
           style="fill:#000000;fill-opacity:1"
           id="id-a28536d5-2b5b-457d-93e9-b277eee5ccdd">
          <g
             transform="translate(184.701,144.796)"
             id="g10443">
            <path
               style="stroke:none"
               d="M 3.890625,-3.734375 C 3.625,-3.71875 3.421875,-3.5 3.421875,-3.28125 c 0,0.140625 0.09375,0.296875 0.3125,0.296875 0.21875,0 0.453125,-0.171875 0.453125,-0.5625 C 4.1875,-4 3.765625,-4.40625 3,-4.40625 c -1.3125,0 -1.6875,1.015625 -1.6875,1.453125 0,0.78125 0.734375,0.921875 1.03125,0.984375 0.515625,0.109375 1.03125,0.21875 1.03125,0.765625 0,0.25 -0.21875,1.09375 -1.421875,1.09375 -0.140625,0 -0.90625,0 -1.140625,-0.53125 0.390625,0.046875 0.640625,-0.25 0.640625,-0.53125 0,-0.21875 -0.171875,-0.34375 -0.375,-0.34375 -0.265625,0 -0.5625,0.203125 -0.5625,0.65625 0,0.5625 0.578125,0.96875 1.421875,0.96875 1.625,0 2.015625,-1.203125 2.015625,-1.65625 0,-0.359375 -0.1875,-0.609375 -0.3125,-0.71875 -0.265625,-0.28125 -0.5625,-0.34375 -1,-0.421875 -0.359375,-0.078125 -0.75,-0.15625 -0.75,-0.609375 C 1.890625,-3.578125 2.125,-4.1875 3,-4.1875 c 0.25,0 0.75,0.078125 0.890625,0.453125 z m 0,0"
               id="id-39eb613c-3829-4f43-b25d-bb0e86af6726" />
          </g>
        </g>
        <g
           style="fill:#000000;fill-opacity:1"
           id="id-d6ac564a-5013-4b0d-8dec-3f4bfd3edf45">
          <g
             transform="translate(189.371,141.918)"
             id="g10447">
            <path
               style="stroke:none"
               d="M 3.515625,-1.265625 H 3.28125 c -0.015625,0.15625 -0.09375,0.5625 -0.1875,0.625 C 3.046875,-0.59375 2.515625,-0.59375 2.40625,-0.59375 H 1.125 c 0.734375,-0.640625 0.984375,-0.84375 1.390625,-1.171875 0.515625,-0.40625 1,-0.84375 1,-1.5 0,-0.84375 -0.734375,-1.359375 -1.625,-1.359375 -0.859375,0 -1.453125,0.609375 -1.453125,1.25 0,0.34375 0.296875,0.390625 0.375,0.390625 0.15625,0 0.359375,-0.125 0.359375,-0.375 0,-0.125 -0.046875,-0.375 -0.40625,-0.375 C 0.984375,-4.21875 1.453125,-4.375 1.78125,-4.375 c 0.703125,0 1.0625,0.546875 1.0625,1.109375 0,0.609375 -0.4375,1.078125 -0.65625,1.328125 L 0.515625,-0.265625 C 0.4375,-0.203125 0.4375,-0.1875 0.4375,0 h 2.875 z m 0,0"
               id="id-a6c7c56b-edc0-4dc4-a9eb-19963b4c1cae" />
          </g>
        </g>
        <g
           style="fill:#000000;fill-opacity:1"
           id="id-9457024c-a68c-4607-aead-aeb38d5e1d3c">
          <g
             transform="translate(196.054,144.796)"
             id="g10451">
            <path
               style="stroke:none"
               d="m 4.078125,-2.296875 h 2.78125 C 7,-2.296875 7.1875,-2.296875 7.1875,-2.5 7.1875,-2.6875 7,-2.6875 6.859375,-2.6875 h -2.78125 v -2.796875 c 0,-0.140625 0,-0.328125 -0.203125,-0.328125 -0.203125,0 -0.203125,0.1875 -0.203125,0.328125 V -2.6875 h -2.78125 c -0.140625,0 -0.328125,0 -0.328125,0.1875 0,0.203125 0.1875,0.203125 0.328125,0.203125 h 2.78125 V 0.5 c 0,0.140625 0,0.328125 0.203125,0.328125 0.203125,0 0.203125,-0.1875 0.203125,-0.328125 z m 0,0"
               id="id-3fc63d53-99e2-4966-9eb3-afe0e2215cd8" />
          </g>
        </g>
        <g
           style="fill:#000000;fill-opacity:1"
           id="id-cef53e55-5709-402c-ad36-a3d9d3b30965">
          <g
             transform="translate(206.015,144.796)"
             id="g10455">
            <path
               style="stroke:none"
               d="m 2.9375,-6.375 c 0,-0.25 0,-0.265625 -0.234375,-0.265625 C 2.078125,-6 1.203125,-6 0.890625,-6 v 0.3125 c 0.203125,0 0.78125,0 1.296875,-0.265625 v 5.171875 c 0,0.359375 -0.03125,0.46875 -0.921875,0.46875 h -0.3125 V 0 c 0.34375,-0.03125 1.203125,-0.03125 1.609375,-0.03125 0.390625,0 1.265625,0 1.609375,0.03125 v -0.3125 h -0.3125 c -0.90625,0 -0.921875,-0.109375 -0.921875,-0.46875 z m 0,0"
               id="id-a32cc565-7f2a-45fd-b3f7-2faf3e4ea5e6" />
          </g>
        </g>
      </g>
    </g>
  </g>
  <g
     inkscape:label="Layer 1"
     inkscape:groupmode="layer"
     id="g11438"
     transform="translate(350.000000 560.000000) translate(-176.958601 -247.742747) scale(0.442397 0.442397)  " />
  <text
     xml:space="preserve"
     style="font-size:5.33333px;line-height:1.25;font-family:sans-serif;-inkscape-font-specification:sans-serif;text-align:center;text-anchor:middle"
     x="340"
     y="480"
     id="text12944-0"
     inkscape:export-xdpi="829.16949"
     inkscape:export-ydpi="829.16949"><tspan
       sodipodi:role="line"
       id="tspan12942-7"
       x="340"
       y="480">gain limit=2.0</tspan></text>
</svg>
