<?xml version="1.0" encoding="UTF-8" standalone="no"?>
<svg
   xmlns:ns2="http://www.iki.fi/pav/software/textext/"
   xmlns:dc="http://purl.org/dc/elements/1.1/"
   xmlns:cc="http://creativecommons.org/ns#"
   xmlns:rdf="http://www.w3.org/1999/02/22-rdf-syntax-ns#"
   xmlns:svg="http://www.w3.org/2000/svg"
   xmlns="http://www.w3.org/2000/svg"
   xmlns:sodipodi="http://sodipodi.sourceforge.net/DTD/sodipodi-0.dtd"
   xmlns:inkscape="http://www.inkscape.org/namespaces/inkscape"
   width="210mm"
   height="297mm"
   viewBox="0 0 793.70081 1122.5197"
   version="1.1"
   id="svg8"
   inkscape:version="1.0.2 (1.0.2+r75+1)"
   sodipodi:docname="ZP_circle.svg">
  <defs
     id="defs2">
    <marker
       id="ArrowAxisStart"
       orient="auto"
       refX="0.0"
       refY="0.0"
       style="overflow:visible"
       inkscape:stockid="ArrowAxisStart">
      <path
         d="M 0.0,0.0 L 5.0,-5.0 L -12.5,0.0 L 5.0,5.0 L 0.0,0.0 z "
         style="fill:#000000;fill-rule:evenodd;stroke:#000000;stroke-width:1.0"
         transform="scale(0.4) rotate(0) translate(8.818000000000001,0)"
         id="path2579" />
    </marker>
    <marker
       id="ArrowAxisEnd"
       orient="auto"
       refX="0.0"
       refY="0.0"
       style="overflow:visible"
       inkscape:stockid="ArrowAxisEnd">
      <path
         d="M 0.0,0.0 L 5.0,-5.0 L -12.5,0.0 L 5.0,5.0 L 0.0,0.0 z "
         style="fill:#000000;fill-rule:evenodd;stroke:#000000;stroke-width:1.0"
         transform="scale(0.4) rotate(180) translate(8.818000000000001,0)"
         id="path2582" />
    </marker>
  </defs>
  <sodipodi:namedview
     id="base"
     pagecolor="#ffffff"
     bordercolor="#666666"
     borderopacity="1.0"
     inkscape:pageopacity="0.0"
     inkscape:pageshadow="2"
     inkscape:zoom="5.8514153"
     inkscape:cx="434.33333"
     inkscape:cy="544.01054"
     inkscape:document-units="px"
     inkscape:current-layer="g3513"
     inkscape:document-rotation="0"
     showgrid="true"
     inkscape:window-width="1347"
     inkscape:window-height="850"
     inkscape:window-x="120"
     inkscape:window-y="52"
     inkscape:window-maximized="0">
    <inkscape:grid
       type="xygrid"
       id="grid869" />
  </sodipodi:namedview>
  <metadata
     id="metadata5">
    <rdf:RDF>
      <cc:Work
         rdf:about="">
        <dc:format>image/svg+xml</dc:format>
        <dc:type
           rdf:resource="http://purl.org/dc/dcmitype/StillImage" />
        <dc:title></dc:title>
      </cc:Work>
    </rdf:RDF>
  </metadata>
  <g
     inkscape:label="Layer 1"
     inkscape:groupmode="layer"
     id="layer1" />
  <g
     inkscape:label="Plot"
     transform="translate(395,550)"
     id="g1348">
    <g
       inkscape:label="Ticks"
       id="g1282">
      <path
         d="M 15,30 V -30"
         style="fill:none;stroke:#b2b2b2;stroke-width:0.3;stroke-linecap:round;stroke-linejoin:round;stroke-dasharray:none"
         inkscape:label="none"
         id="path1266" />
      <path
         d="M 30,30 V -30"
         style="fill:none;stroke:#b2b2b2;stroke-width:0.3;stroke-linecap:round;stroke-linejoin:round;stroke-dasharray:none"
         inkscape:label="none"
         id="path1268" />
      <path
         d="M -15,30 V -30"
         style="fill:none;stroke:#b2b2b2;stroke-width:0.3;stroke-linecap:round;stroke-linejoin:round;stroke-dasharray:none"
         inkscape:label="none"
         id="path1270" />
      <path
         d="M -30,30 V -30"
         style="fill:none;stroke:#b2b2b2;stroke-width:0.3;stroke-linecap:round;stroke-linejoin:round;stroke-dasharray:none"
         inkscape:label="none"
         id="path1272" />
      <path
         d="M -30,-15 H 30"
         style="fill:none;stroke:#b2b2b2;stroke-width:0.3;stroke-linecap:round;stroke-linejoin:round;stroke-dasharray:none"
         inkscape:label="none"
         id="path1274" />
      <path
         d="M -30,-30 H 30"
         style="fill:none;stroke:#b2b2b2;stroke-width:0.3;stroke-linecap:round;stroke-linejoin:round;stroke-dasharray:none"
         inkscape:label="none"
         id="path1276" />
      <path
         d="M -30,15 H 30"
         style="fill:none;stroke:#b2b2b2;stroke-width:0.3;stroke-linecap:round;stroke-linejoin:round;stroke-dasharray:none"
         inkscape:label="none"
         id="path1278" />
      <path
         d="M -30,30 H 30"
         style="fill:none;stroke:#b2b2b2;stroke-width:0.3;stroke-linecap:round;stroke-linejoin:round;stroke-dasharray:none"
         inkscape:label="none"
         id="path1280" />
    </g>
    <g
       inkscape:label="Axis"
       id="g1328">
      <path
         d="M -30,0 H 37.5"
         style="fill:none;stroke:#4c4c4c;stroke-width:0.428571;stroke-linecap:round;stroke-linejoin:round;stroke-dasharray:none;marker-end:url(#ArrowAxisEnd)"
         inkscape:label="Xaxis"
         id="path1284" />
      <g
         inkscape:label="Layer 1"
         inkscape:groupmode="layer"
         id="g1304"
         transform="matrix(0.414748,0,0,0.414748,-126.57163,-228.43968)">
        <g
           transform="matrix(1.33333,0,0,1.33333,392.58,555.313)"
           ns2:version="1.1.0"
           ns2:texconverter="pdflatex"
           ns2:pdfconverter="inkscape"
           ns2:text=" Re"
           ns2:preamble="/home/fernando/.config/inkscape/extensions/inkscapeMadeEasy/basicLatexPackages.tex"
           ns2:scale="1.0"
           ns2:alignment="middle center"
           ns2:inkscapeversion="1.0.1"
           ns2:jacobian_sqrt="1.33333"
           id="g1302">
          <defs
             id="id-95575b64-f747-4740-9161-3eec858c3ec9">
            <g
               id="id-9e9b8788-6f61-4c49-956b-ce6e97aa97ff">
              <symbol
                 overflow="visible"
                 id="id-2948b2e2-b2af-41ae-9044-b8dc46fb4c87">
                <path
                   style="stroke:none"
                   d=""
                   id="id-b20f260e-7a85-4404-b065-87dcf2b0e8c1" />
              </symbol>
              <symbol
                 overflow="visible"
                 id="id-56865bb1-1df4-49fd-b540-c027b7c276bb">
                <path
                   style="stroke:none"
                   d="M 2.234375,-3.515625 V -6.09375 c 0,-0.234375 0,-0.359375 0.21875,-0.390625 C 2.546875,-6.5 2.84375,-6.5 3.046875,-6.5 c 0.890625,0 2,0.046875 2,1.484375 0,0.6875 -0.234375,1.5 -1.703125,1.5 z m 2.109375,0.125 C 5.296875,-3.625 6.078125,-4.234375 6.078125,-5.015625 6.078125,-5.96875 4.9375,-6.8125 3.484375,-6.8125 H 0.34375 V -6.5 h 0.25 c 0.765625,0 0.78125,0.109375 0.78125,0.46875 v 5.25 c 0,0.359375 -0.015625,0.46875 -0.78125,0.46875 h -0.25 V 0 c 0.359375,-0.03125 1.078125,-0.03125 1.453125,-0.03125 0.390625,0 1.109375,0 1.46875,0.03125 v -0.3125 h -0.25 c -0.765625,0 -0.78125,-0.109375 -0.78125,-0.46875 V -3.296875 H 3.375 c 0.15625,0 0.578125,0 0.9375,0.34375 0.375,0.34375 0.375,0.65625 0.375,1.328125 0,0.640625 0,1.046875 0.40625,1.421875 0.40625,0.359375 0.953125,0.421875 1.25,0.421875 0.78125,0 0.953125,-0.8125 0.953125,-1.09375 0,-0.0625 0,-0.171875 -0.125,-0.171875 -0.109375,0 -0.109375,0.09375 -0.125,0.15625 C 6.984375,-0.171875 6.640625,0 6.390625,0 5.90625,0 5.828125,-0.515625 5.6875,-1.4375 L 5.546875,-2.234375 C 5.375,-2.875 4.890625,-3.203125 4.34375,-3.390625 Z m 0,0"
                   id="id-3cc9bb1c-aba6-4eaa-aa07-f2eac606b726" />
              </symbol>
              <symbol
                 overflow="visible"
                 id="id-85c1093a-ac81-4a94-a7a8-eced50f21d23">
                <path
                   style="stroke:none"
                   d="M 1.109375,-2.515625 C 1.171875,-4 2.015625,-4.25 2.359375,-4.25 c 1.015625,0 1.125,1.34375 1.125,1.734375 z m 0,0.21875 h 2.78125 c 0.21875,0 0.25,0 0.25,-0.21875 0,-0.984375 -0.546875,-1.953125 -1.78125,-1.953125 -1.15625,0 -2.078125,1.03125 -2.078125,2.28125 0,1.328125 1.046875,2.296875 2.1875,2.296875 C 3.6875,0.109375 4.140625,-1 4.140625,-1.1875 4.140625,-1.28125 4.0625,-1.3125 4,-1.3125 c -0.078125,0 -0.109375,0.0625 -0.125,0.140625 -0.34375,1.03125 -1.25,1.03125 -1.34375,1.03125 -0.5,0 -0.890625,-0.296875 -1.125,-0.671875 -0.296875,-0.46875 -0.296875,-1.125 -0.296875,-1.484375 z m 0,0"
                   id="id-dd1abfb9-803f-4741-9dec-2ebc8001e8c6" />
              </symbol>
            </g>
          </defs>
          <g
             id="id-17ac1413-87eb-41c5-b9d6-3cfebad3aa94"
             transform="translate(-149.056,-127.953)">
            <g
               style="fill:#000000;fill-opacity:1"
               id="id-c0cff528-2b87-4a60-af0a-7d49897ba71b">
              <g
                 transform="translate(148.712,134.765)"
                 id="g1295">
                <path
                   style="stroke:none"
                   d="M 2.234375,-3.515625 V -6.09375 c 0,-0.234375 0,-0.359375 0.21875,-0.390625 C 2.546875,-6.5 2.84375,-6.5 3.046875,-6.5 c 0.890625,0 2,0.046875 2,1.484375 0,0.6875 -0.234375,1.5 -1.703125,1.5 z m 2.109375,0.125 C 5.296875,-3.625 6.078125,-4.234375 6.078125,-5.015625 6.078125,-5.96875 4.9375,-6.8125 3.484375,-6.8125 H 0.34375 V -6.5 h 0.25 c 0.765625,0 0.78125,0.109375 0.78125,0.46875 v 5.25 c 0,0.359375 -0.015625,0.46875 -0.78125,0.46875 h -0.25 V 0 c 0.359375,-0.03125 1.078125,-0.03125 1.453125,-0.03125 0.390625,0 1.109375,0 1.46875,0.03125 v -0.3125 h -0.25 c -0.765625,0 -0.78125,-0.109375 -0.78125,-0.46875 V -3.296875 H 3.375 c 0.15625,0 0.578125,0 0.9375,0.34375 0.375,0.34375 0.375,0.65625 0.375,1.328125 0,0.640625 0,1.046875 0.40625,1.421875 0.40625,0.359375 0.953125,0.421875 1.25,0.421875 0.78125,0 0.953125,-0.8125 0.953125,-1.09375 0,-0.0625 0,-0.171875 -0.125,-0.171875 -0.109375,0 -0.109375,0.09375 -0.125,0.15625 C 6.984375,-0.171875 6.640625,0 6.390625,0 5.90625,0 5.828125,-0.515625 5.6875,-1.4375 L 5.546875,-2.234375 C 5.375,-2.875 4.890625,-3.203125 4.34375,-3.390625 Z m 0,0"
                   id="id-49ba1cac-0ec6-44f9-b0f7-e66e3e71bc5c" />
              </g>
              <g
                 transform="translate(156.045,134.765)"
                 id="g1298">
                <path
                   style="stroke:none"
                   d="M 1.109375,-2.515625 C 1.171875,-4 2.015625,-4.25 2.359375,-4.25 c 1.015625,0 1.125,1.34375 1.125,1.734375 z m 0,0.21875 h 2.78125 c 0.21875,0 0.25,0 0.25,-0.21875 0,-0.984375 -0.546875,-1.953125 -1.78125,-1.953125 -1.15625,0 -2.078125,1.03125 -2.078125,2.28125 0,1.328125 1.046875,2.296875 2.1875,2.296875 C 3.6875,0.109375 4.140625,-1 4.140625,-1.1875 4.140625,-1.28125 4.0625,-1.3125 4,-1.3125 c -0.078125,0 -0.109375,0.0625 -0.125,0.140625 -0.34375,1.03125 -1.25,1.03125 -1.34375,1.03125 -0.5,0 -0.890625,-0.296875 -1.125,-0.671875 -0.296875,-0.46875 -0.296875,-1.125 -0.296875,-1.484375 z m 0,0"
                   id="id-f435845b-e054-403e-a10c-ee55d469a1f3" />
              </g>
            </g>
          </g>
        </g>
      </g>
      <path
         d="M 0,30 V -41.25"
         style="fill:none;stroke:#4c4c4c;stroke-width:0.428571;stroke-linecap:round;stroke-linejoin:round;stroke-dasharray:none;marker-end:url(#ArrowAxisEnd)"
         inkscape:label="Yaxis"
         id="path1306" />
      <g
         inkscape:label="Layer 1"
         inkscape:groupmode="layer"
         id="g1326"
         transform="matrix(0.414748,0,0,0.414748,-160.8652,-271.62482)">
        <g
           transform="matrix(1.33333,0,0,1.33333,392.383,555.458)"
           ns2:version="1.1.0"
           ns2:texconverter="pdflatex"
           ns2:pdfconverter="inkscape"
           ns2:text=" Im"
           ns2:preamble="/home/fernando/.config/inkscape/extensions/inkscapeMadeEasy/basicLatexPackages.tex"
           ns2:scale="1.0"
           ns2:alignment="middle center"
           ns2:inkscapeversion="1.0.1"
           ns2:jacobian_sqrt="1.33333"
           id="g1324">
          <defs
             id="id-376b2935-5aaa-4854-b375-a522ae3dfd2c">
            <g
               id="id-c6dff475-85af-493f-a308-cec5c75a1ee5">
              <symbol
                 overflow="visible"
                 id="id-9cd7672c-d222-4462-b0ab-ba35bdf3e1de">
                <path
                   style="stroke:none"
                   d=""
                   id="id-fc002679-fe83-4938-88b7-4fa2536c4e78" />
              </symbol>
              <symbol
                 overflow="visible"
                 id="id-e9c6d671-1bf6-4b70-ac11-2fe2b07dd16e">
                <path
                   style="stroke:none"
                   d="M 2.25,-6.03125 C 2.25,-6.390625 2.265625,-6.5 3.0625,-6.5 h 0.25 v -0.3125 c -0.34375,0.03125 -1.125,0.03125 -1.515625,0.03125 -0.375,0 -1.171875,0 -1.515625,-0.03125 V -6.5 h 0.25 c 0.796875,0 0.828125,0.109375 0.828125,0.46875 v 5.25 c 0,0.359375 -0.03125,0.46875 -0.828125,0.46875 h -0.25 V 0 c 0.34375,-0.03125 1.140625,-0.03125 1.515625,-0.03125 0.390625,0 1.171875,0 1.515625,0.03125 v -0.3125 h -0.25 C 2.265625,-0.3125 2.25,-0.421875 2.25,-0.78125 Z m 0,0"
                   id="id-ee162c78-6fbf-444b-b3c6-cc379f8029dc" />
              </symbol>
              <symbol
                 overflow="visible"
                 id="id-292a754d-8121-4393-b128-62ce696d1b3a">
                <path
                   style="stroke:none"
                   d="M 1.09375,-3.421875 V -0.75 c 0,0.4375 -0.109375,0.4375 -0.78125,0.4375 V 0 c 0.359375,-0.015625 0.859375,-0.03125 1.140625,-0.03125 0.25,0 0.765625,0.015625 1.109375,0.03125 v -0.3125 c -0.671875,0 -0.78125,0 -0.78125,-0.4375 V -2.59375 C 1.78125,-3.625 2.5,-4.1875 3.125,-4.1875 c 0.640625,0 0.75,0.53125 0.75,1.109375 V -0.75 c 0,0.4375 -0.109375,0.4375 -0.78125,0.4375 V 0 c 0.34375,-0.015625 0.859375,-0.03125 1.125,-0.03125 0.25,0 0.78125,0.015625 1.109375,0.03125 v -0.3125 c -0.65625,0 -0.765625,0 -0.765625,-0.4375 v -1.84375 c 0,-1.03125 0.703125,-1.59375 1.34375,-1.59375 0.625,0 0.734375,0.53125 0.734375,1.109375 V -0.75 c 0,0.4375 -0.109375,0.4375 -0.78125,0.4375 V 0 c 0.34375,-0.015625 0.859375,-0.03125 1.125,-0.03125 0.265625,0 0.78125,0.015625 1.125,0.03125 v -0.3125 c -0.515625,0 -0.765625,0 -0.78125,-0.296875 v -1.90625 c 0,-0.859375 0,-1.15625 -0.3125,-1.515625 -0.140625,-0.171875 -0.46875,-0.375 -1.046875,-0.375 -0.828125,0 -1.28125,0.59375 -1.4375,0.984375 C 4.390625,-4.296875 3.65625,-4.40625 3.203125,-4.40625 2.46875,-4.40625 2,-3.984375 1.71875,-3.359375 V -4.40625 L 0.3125,-4.296875 v 0.3125 c 0.703125,0 0.78125,0.0625 0.78125,0.5625 z m 0,0"
                   id="id-30ec1658-be6e-4606-b4cb-2d6105a6003c" />
              </symbol>
            </g>
          </defs>
          <g
             id="id-e6c9c297-7c93-41b0-b7c9-f7b1a910caa3"
             transform="translate(-148.993,-127.953)">
            <g
               style="fill:#000000;fill-opacity:1"
               id="id-5875fae6-2283-4d0e-84ac-68406069d322">
              <g
                 transform="translate(148.712,134.765)"
                 id="g1317">
                <path
                   style="stroke:none"
                   d="M 2.25,-6.03125 C 2.25,-6.390625 2.265625,-6.5 3.0625,-6.5 h 0.25 v -0.3125 c -0.34375,0.03125 -1.125,0.03125 -1.515625,0.03125 -0.375,0 -1.171875,0 -1.515625,-0.03125 V -6.5 h 0.25 c 0.796875,0 0.828125,0.109375 0.828125,0.46875 v 5.25 c 0,0.359375 -0.03125,0.46875 -0.828125,0.46875 h -0.25 V 0 c 0.34375,-0.03125 1.140625,-0.03125 1.515625,-0.03125 0.390625,0 1.171875,0 1.515625,0.03125 v -0.3125 h -0.25 C 2.265625,-0.3125 2.25,-0.421875 2.25,-0.78125 Z m 0,0"
                   id="id-e9da9ebb-31e3-4c60-a1b4-d7df250f6c26" />
              </g>
              <g
                 transform="translate(152.309,134.765)"
                 id="g1320">
                <path
                   style="stroke:none"
                   d="M 1.09375,-3.421875 V -0.75 c 0,0.4375 -0.109375,0.4375 -0.78125,0.4375 V 0 c 0.359375,-0.015625 0.859375,-0.03125 1.140625,-0.03125 0.25,0 0.765625,0.015625 1.109375,0.03125 v -0.3125 c -0.671875,0 -0.78125,0 -0.78125,-0.4375 V -2.59375 C 1.78125,-3.625 2.5,-4.1875 3.125,-4.1875 c 0.640625,0 0.75,0.53125 0.75,1.109375 V -0.75 c 0,0.4375 -0.109375,0.4375 -0.78125,0.4375 V 0 c 0.34375,-0.015625 0.859375,-0.03125 1.125,-0.03125 0.25,0 0.78125,0.015625 1.109375,0.03125 v -0.3125 c -0.65625,0 -0.765625,0 -0.765625,-0.4375 v -1.84375 c 0,-1.03125 0.703125,-1.59375 1.34375,-1.59375 0.625,0 0.734375,0.53125 0.734375,1.109375 V -0.75 c 0,0.4375 -0.109375,0.4375 -0.78125,0.4375 V 0 c 0.34375,-0.015625 0.859375,-0.03125 1.125,-0.03125 0.265625,0 0.78125,0.015625 1.125,0.03125 v -0.3125 c -0.515625,0 -0.765625,0 -0.78125,-0.296875 v -1.90625 c 0,-0.859375 0,-1.15625 -0.3125,-1.515625 -0.140625,-0.171875 -0.46875,-0.375 -1.046875,-0.375 -0.828125,0 -1.28125,0.59375 -1.4375,0.984375 C 4.390625,-4.296875 3.65625,-4.40625 3.203125,-4.40625 2.46875,-4.40625 2,-3.984375 1.71875,-3.359375 V -4.40625 L 0.3125,-4.296875 v 0.3125 c 0.703125,0 0.78125,0.0625 0.78125,0.5625 z m 0,0"
                   id="id-81481522-187a-4bdc-a1f8-389c8807dd32" />
              </g>
            </g>
          </g>
        </g>
      </g>
    </g>
    <g
       inkscape:label="ZeroPoles"
       id="g1346">
      <circle
         style="fill:none;stroke:#0000ff;stroke-width:0.533333;stroke-linecap:round;stroke-linejoin:round;stroke-dasharray:none"
         inkscape:label="circle"
         id="path1330"
         cx="-30"
         cy="0"
         r="1.0666667" />
      <circle
         style="fill:none;stroke:#0000ff;stroke-width:0.533333;stroke-linecap:round;stroke-linejoin:round;stroke-dasharray:none"
         inkscape:label="circle"
         id="path1332"
         cx="-15"
         cy="25.980762"
         r="1.0666667" />
      <circle
         style="fill:none;stroke:#0000ff;stroke-width:0.533333;stroke-linecap:round;stroke-linejoin:round;stroke-dasharray:none"
         inkscape:label="circle"
         id="path1334"
         cx="-15"
         cy="-25.980762"
         r="1.0666667" />
      <path
         d="m -15,15 -1.066667,-1.066667 2.133334,2.133334"
         style="fill:none;stroke:#ff0000;stroke-width:0.533333;stroke-linecap:round;stroke-linejoin:round;stroke-dasharray:none"
         inkscape:label="none"
         id="path1336" />
      <path
         d="m -15,15 -1.066667,1.066667 2.133334,-2.133334"
         style="fill:none;stroke:#ff0000;stroke-width:0.533333;stroke-linecap:round;stroke-linejoin:round;stroke-dasharray:none"
         inkscape:label="none"
         id="path1338" />
      <path
         d="m -15,-15 -1.066667,-1.066667 2.133334,2.133334"
         style="fill:none;stroke:#ff0000;stroke-width:0.533333;stroke-linecap:round;stroke-linejoin:round;stroke-dasharray:none"
         inkscape:label="none"
         id="path1340" />
      <path
         d="m -15,-15 -1.066667,1.066667 2.133334,-2.133334"
         style="fill:none;stroke:#ff0000;stroke-width:0.533333;stroke-linecap:round;stroke-linejoin:round;stroke-dasharray:none"
         inkscape:label="none"
         id="path1342" />
      <circle
         style="fill:none;stroke:#000000;stroke-width:0.266667;stroke-linecap:round;stroke-linejoin:round;stroke-dasharray:2, 2"
         inkscape:label="circle"
         id="path1344"
         cx="0"
         cy="0"
         r="30" />
    </g>
  </g>
  <g
     inkscape:label="Layer 1"
     inkscape:groupmode="layer"
     id="g1738"
     transform="translate(410.000000 550.000000) translate(-176.958633 -247.742193) scale(0.442397 0.442397)  " />
  <g
     inkscape:label="Layer 1"
     inkscape:groupmode="layer"
     id="g2310"
     transform="translate(410.000000 550.000000) translate(-176.958455 -247.742193) scale(0.442397 0.442397)  " />
  <g
     inkscape:label="Layer 1"
     inkscape:groupmode="layer"
     id="g2960"
     transform="translate(410.000000 550.000000) translate(-176.958591 -247.742193) scale(0.442397 0.442397)  " />
  <g
     inkscape:label="Layer 1"
     inkscape:groupmode="layer"
     id="g3513"
     transform="translate(410.000000 550.000000) translate(-176.958591 -247.742193) scale(0.442397 0.442397)  ">
    <g
       transform="matrix(1.0999639,0,0,1.0999639,454.92333,588.55581)"
       ns2:version="1.1.0"
       ns2:texconverter="pdflatex"
       ns2:pdfconverter="inkscape"
       ns2:text=" $H(z)=\\displaystyle\\frac{0.5+z^{-1}+z^{-2}+0.5z^{-3}}{1.0+z^{-1}+0.5z^{-2}}$"
       ns2:preamble="/home/fernando/.config/inkscape/extensions/inkscapeMadeEasy/basicLatexPackages.tex"
       ns2:scale="1.0"
       ns2:alignment="middle center"
       ns2:inkscapeversion="1.0.1"
       ns2:jacobian_sqrt="1.33333"
       id="g3511">
      <defs
         id="id-55ce0f22-c8a4-4a09-9ad2-83c68987feee">
        <g
           id="id-0420e282-f0f7-4bae-9072-7ef5bcac3774">
          <symbol
             overflow="visible"
             id="id-9111e75a-ee1a-430e-9d77-567bc73be4de">
            <path
               style="stroke:none"
               d=""
               id="id-80ea6ebc-9231-491a-a179-12e471dec22a" />
          </symbol>
          <symbol
             overflow="visible"
             id="id-dfe20b05-7053-4f4b-80a2-d26e8ae64006">
            <path
               style="stroke:none"
               d="M 7.609375,-6.046875 C 7.703125,-6.40625 7.71875,-6.5 8.4375,-6.5 c 0.265625,0 0.34375,0 0.34375,-0.203125 0,-0.109375 -0.109375,-0.109375 -0.140625,-0.109375 -0.28125,0 -1,0.03125 -1.28125,0.03125 -0.28125,0 -0.984375,-0.03125 -1.28125,-0.03125 -0.078125,0 -0.1875,0 -0.1875,0.203125 0,0.109375 0.09375,0.109375 0.28125,0.109375 0.015625,0 0.203125,0 0.375,0.015625 0.1875,0.03125 0.265625,0.03125 0.265625,0.171875 0,0.03125 0,0.046875 -0.03125,0.1875 L 6.1875,-3.703125 H 3.140625 l 0.59375,-2.34375 C 3.8125,-6.40625 3.84375,-6.5 4.5625,-6.5 c 0.265625,0 0.34375,0 0.34375,-0.203125 0,-0.109375 -0.109375,-0.109375 -0.140625,-0.109375 -0.28125,0 -1,0.03125 -1.28125,0.03125 -0.28125,0 -0.984375,-0.03125 -1.28125,-0.03125 -0.078125,0 -0.1875,0 -0.1875,0.203125 0,0.109375 0.09375,0.109375 0.28125,0.109375 0.015625,0 0.203125,0 0.375,0.015625 0.171875,0.03125 0.265625,0.03125 0.265625,0.171875 0,0.03125 0,0.0625 -0.03125,0.1875 L 1.5625,-0.78125 c -0.09375,0.390625 -0.109375,0.46875 -0.90625,0.46875 -0.171875,0 -0.265625,0 -0.265625,0.203125 C 0.390625,0 0.515625,0 0.53125,0 0.8125,0 1.515625,-0.03125 1.796875,-0.03125 2,-0.03125 2.21875,-0.015625 2.4375,-0.015625 2.65625,-0.015625 2.875,0 3.078125,0 3.15625,0 3.28125,0 3.28125,-0.203125 3.28125,-0.3125 3.1875,-0.3125 3,-0.3125 c -0.375,0 -0.640625,0 -0.640625,-0.171875 0,-0.0625 0.015625,-0.109375 0.015625,-0.171875 l 0.6875,-2.734375 h 3.03125 c -0.40625,1.65625 -0.640625,2.609375 -0.6875,2.75 C 5.3125,-0.3125 5.125,-0.3125 4.5,-0.3125 c -0.140625,0 -0.234375,0 -0.234375,0.203125 C 4.265625,0 4.390625,0 4.40625,0 4.6875,0 5.390625,-0.03125 5.671875,-0.03125 5.875,-0.03125 6.09375,-0.015625 6.3125,-0.015625 6.53125,-0.015625 6.75,0 6.953125,0 7.03125,0 7.15625,0 7.15625,-0.203125 7.15625,-0.3125 7.0625,-0.3125 6.875,-0.3125 c -0.359375,0 -0.640625,0 -0.640625,-0.171875 0,-0.0625 0.015625,-0.109375 0.03125,-0.171875 z m 0,0"
               id="id-d16f93e8-0c41-4d18-8e8d-1f93252fbb3d" />
          </symbol>
          <symbol
             overflow="visible"
             id="id-23a5d296-bd6f-4f53-8cb7-8b0e55166639">
            <path
               style="stroke:none"
               d="m 1.328125,-0.828125 c 0.53125,-0.578125 0.828125,-0.828125 1.1875,-1.140625 0,0 0.609375,-0.53125 0.96875,-0.890625 C 4.4375,-3.78125 4.65625,-4.265625 4.65625,-4.3125 c 0,-0.09375 -0.09375,-0.09375 -0.109375,-0.09375 -0.078125,0 -0.09375,0.015625 -0.15625,0.109375 -0.296875,0.484375 -0.5,0.640625 -0.734375,0.640625 -0.25,0 -0.359375,-0.15625 -0.515625,-0.328125 -0.1875,-0.21875 -0.359375,-0.421875 -0.6875,-0.421875 -0.75,0 -1.203125,0.921875 -1.203125,1.140625 0,0.046875 0.03125,0.109375 0.109375,0.109375 0.09375,0 0.109375,-0.046875 0.140625,-0.109375 0.1875,-0.46875 0.765625,-0.46875 0.84375,-0.46875 0.203125,0 0.390625,0.0625 0.625,0.140625 0.40625,0.15625 0.515625,0.15625 0.765625,0.15625 -0.359375,0.421875 -1.1875,1.140625 -1.375,1.296875 l -0.90625,0.84375 C 0.78125,-0.625 0.421875,-0.0625 0.421875,0.015625 c 0,0.09375 0.109375,0.09375 0.125,0.09375 0.078125,0 0.09375,-0.015625 0.15625,-0.125 0.234375,-0.359375 0.53125,-0.625 0.859375,-0.625 0.21875,0 0.328125,0.09375 0.578125,0.375 0.15625,0.21875 0.34375,0.375 0.625,0.375 1,0 1.578125,-1.265625 1.578125,-1.53125 0,-0.046875 -0.046875,-0.109375 -0.125,-0.109375 -0.09375,0 -0.109375,0.0625 -0.140625,0.140625 C 3.84375,-0.75 3.203125,-0.5625 2.875,-0.5625 c -0.1875,0 -0.375,-0.0625 -0.578125,-0.125 -0.34375,-0.125 -0.5,-0.171875 -0.703125,-0.171875 -0.015625,0 -0.171875,0 -0.265625,0.03125 z m 0,0"
               id="id-7652d1c8-e437-4dab-891b-5980e0456185" />
          </symbol>
          <symbol
             overflow="visible"
             id="id-842022f3-29f8-4a56-ac17-759346c3637f">
            <path
               style="stroke:none"
               d="m 1.90625,-0.53125 c 0,-0.28125 -0.234375,-0.53125 -0.515625,-0.53125 -0.296875,0 -0.53125,0.25 -0.53125,0.53125 C 0.859375,-0.234375 1.09375,0 1.390625,0 1.671875,0 1.90625,-0.234375 1.90625,-0.53125 Z m 0,0"
               id="id-2d401690-8d1f-4b3e-88b5-98b72ef2319c" />
          </symbol>
          <symbol
             overflow="visible"
             id="id-0880faef-1866-4f4f-bc68-371e452691d6">
            <path
               style="stroke:none"
               d=""
               id="id-92c32cec-ff53-40fb-bc19-8f1ac4633818" />
          </symbol>
          <symbol
             overflow="visible"
             id="id-d55268f9-2510-4d86-9d8b-4b599b61ba9e">
            <path
               style="stroke:none"
               d="m 3.296875,2.390625 c 0,-0.03125 0,-0.046875 -0.171875,-0.21875 C 1.890625,0.921875 1.5625,-0.96875 1.5625,-2.5 c 0,-1.734375 0.375,-3.46875 1.609375,-4.703125 0.125,-0.125 0.125,-0.140625 0.125,-0.171875 0,-0.078125 -0.03125,-0.109375 -0.09375,-0.109375 -0.109375,0 -1,0.6875 -1.59375,1.953125 -0.5,1.09375 -0.625,2.203125 -0.625,3.03125 0,0.78125 0.109375,1.984375 0.65625,3.125 C 2.25,1.84375 3.09375,2.5 3.203125,2.5 c 0.0625,0 0.09375,-0.03125 0.09375,-0.109375 z m 0,0"
               id="id-64b61fc8-1f14-42e3-9ffc-f36b0dd3b79a" />
          </symbol>
          <symbol
             overflow="visible"
             id="id-8d23edcd-e5ce-4399-a415-2fe489052100">
            <path
               style="stroke:none"
               d="m 2.875,-2.5 c 0,-0.765625 -0.109375,-1.96875 -0.65625,-3.109375 -0.59375,-1.21875 -1.453125,-1.875 -1.546875,-1.875 -0.0625,0 -0.109375,0.046875 -0.109375,0.109375 0,0.03125 0,0.046875 0.1875,0.234375 0.984375,0.984375 1.546875,2.5625 1.546875,4.640625 0,1.71875 -0.359375,3.46875 -1.59375,4.71875 C 0.5625,2.34375 0.5625,2.359375 0.5625,2.390625 0.5625,2.453125 0.609375,2.5 0.671875,2.5 0.765625,2.5 1.671875,1.8125 2.25,0.546875 2.765625,-0.546875 2.875,-1.65625 2.875,-2.5 Z m 0,0"
               id="id-a020fdc7-1513-4143-bfba-2d625b3c053b" />
          </symbol>
          <symbol
             overflow="visible"
             id="id-1dc4e385-d74a-4d59-9963-cf35e123a34c">
            <path
               style="stroke:none"
               d="m 6.84375,-3.265625 c 0.15625,0 0.34375,0 0.34375,-0.1875 C 7.1875,-3.65625 7,-3.65625 6.859375,-3.65625 h -5.96875 c -0.140625,0 -0.328125,0 -0.328125,0.203125 0,0.1875 0.1875,0.1875 0.328125,0.1875 z m 0.015625,1.9375 c 0.140625,0 0.328125,0 0.328125,-0.203125 0,-0.1875 -0.1875,-0.1875 -0.34375,-0.1875 H 0.890625 c -0.140625,0 -0.328125,0 -0.328125,0.1875 0,0.203125 0.1875,0.203125 0.328125,0.203125 z m 0,0"
               id="id-d749614f-99ad-4f6f-ae78-bf5f8d81a323" />
          </symbol>
          <symbol
             overflow="visible"
             id="id-843c7a7d-b569-46de-bc7e-486896f02396">
            <path
               style="stroke:none"
               d="m 4.578125,-3.1875 c 0,-0.796875 -0.046875,-1.59375 -0.390625,-2.328125 -0.453125,-0.96875 -1.28125,-1.125 -1.6875,-1.125 -0.609375,0 -1.328125,0.265625 -1.75,1.1875 -0.3125,0.6875 -0.359375,1.46875 -0.359375,2.265625 0,0.75 0.03125,1.640625 0.453125,2.40625 0.421875,0.796875 1.15625,1 1.640625,1 0.53125,0 1.296875,-0.203125 1.734375,-1.15625 0.3125,-0.6875 0.359375,-1.46875 0.359375,-2.25 z M 2.484375,0 C 2.09375,0 1.5,-0.25 1.328125,-1.203125 1.21875,-1.796875 1.21875,-2.71875 1.21875,-3.3125 c 0,-0.640625 0,-1.296875 0.078125,-1.828125 0.1875,-1.1875 0.9375,-1.28125 1.1875,-1.28125 0.328125,0 0.984375,0.1875 1.171875,1.171875 0.109375,0.5625 0.109375,1.3125 0.109375,1.9375 0,0.75 0,1.421875 -0.109375,2.0625 C 3.5,-0.296875 2.9375,0 2.484375,0 Z m 0,0"
               id="id-2585091f-8dc1-4d93-833f-ca40cf204db1" />
          </symbol>
          <symbol
             overflow="visible"
             id="id-0f776b64-bcb9-4bd5-b81b-2b94b55fac9c">
            <path
               style="stroke:none"
               d="m 4.46875,-2 c 0,-1.1875 -0.8125,-2.1875 -1.890625,-2.1875 -0.46875,0 -0.90625,0.15625 -1.265625,0.515625 V -5.625 c 0.203125,0.0625 0.53125,0.125 0.84375,0.125 1.234375,0 1.9375,-0.90625 1.9375,-1.03125 0,-0.0625 -0.03125,-0.109375 -0.109375,-0.109375 0,0 -0.03125,0 -0.078125,0.03125 C 3.703125,-6.515625 3.21875,-6.3125 2.546875,-6.3125 2.15625,-6.3125 1.6875,-6.390625 1.21875,-6.59375 1.140625,-6.625 1.125,-6.625 1.109375,-6.625 1,-6.625 1,-6.546875 1,-6.390625 V -3.4375 c 0,0.171875 0,0.25 0.140625,0.25 0.078125,0 0.09375,-0.015625 0.140625,-0.078125 C 1.390625,-3.421875 1.75,-3.96875 2.5625,-3.96875 c 0.515625,0 0.765625,0.453125 0.84375,0.640625 0.15625,0.375 0.1875,0.75 0.1875,1.25 0,0.359375 0,0.953125 -0.25,1.375 C 3.109375,-0.3125 2.734375,-0.0625 2.28125,-0.0625 c -0.71875,0 -1.296875,-0.53125 -1.46875,-1.109375 0.03125,0 0.0625,0.015625 0.171875,0.015625 0.328125,0 0.5,-0.25 0.5,-0.484375 0,-0.25 -0.171875,-0.5 -0.5,-0.5 C 0.84375,-2.140625 0.5,-2.0625 0.5,-1.609375 0.5,-0.75 1.1875,0.21875 2.296875,0.21875 3.453125,0.21875 4.46875,-0.734375 4.46875,-2 Z m 0,0"
               id="id-714bd6cd-05d9-4547-9dec-7996b05918a4" />
          </symbol>
          <symbol
             overflow="visible"
             id="id-8a4edeea-d373-48ac-8113-d986b70af9d4">
            <path
               style="stroke:none"
               d="m 4.078125,-2.296875 h 2.78125 C 7,-2.296875 7.1875,-2.296875 7.1875,-2.5 7.1875,-2.6875 7,-2.6875 6.859375,-2.6875 h -2.78125 v -2.796875 c 0,-0.140625 0,-0.328125 -0.203125,-0.328125 -0.203125,0 -0.203125,0.1875 -0.203125,0.328125 V -2.6875 h -2.78125 c -0.140625,0 -0.328125,0 -0.328125,0.1875 0,0.203125 0.1875,0.203125 0.328125,0.203125 h 2.78125 V 0.5 c 0,0.140625 0,0.328125 0.203125,0.328125 0.203125,0 0.203125,-0.1875 0.203125,-0.328125 z m 0,0"
               id="id-a56c0603-fc69-4e97-a09e-9744ecac2dc8" />
          </symbol>
          <symbol
             overflow="visible"
             id="id-9cf1e3e8-5331-45c1-a579-e1a35154b325">
            <path
               style="stroke:none"
               d="m 2.9375,-6.375 c 0,-0.25 0,-0.265625 -0.234375,-0.265625 C 2.078125,-6 1.203125,-6 0.890625,-6 v 0.3125 c 0.203125,0 0.78125,0 1.296875,-0.265625 v 5.171875 c 0,0.359375 -0.03125,0.46875 -0.921875,0.46875 h -0.3125 V 0 c 0.34375,-0.03125 1.203125,-0.03125 1.609375,-0.03125 0.390625,0 1.265625,0 1.609375,0.03125 v -0.3125 h -0.3125 c -0.90625,0 -0.921875,-0.109375 -0.921875,-0.46875 z m 0,0"
               id="id-af37fb3f-27b1-4783-b18e-9b0a4eeb9511" />
          </symbol>
          <symbol
             overflow="visible"
             id="id-9c63337c-41d2-41bb-b631-153c8e7aff07">
            <path
               style="stroke:none"
               d=""
               id="id-5082d14a-1fcf-45a1-9a11-50e90c41eca5" />
          </symbol>
          <symbol
             overflow="visible"
             id="id-ac91a794-7dd7-4ab3-90ed-0255d8b54eef">
            <path
               style="stroke:none"
               d="m 5.1875,-1.578125 c 0.109375,0 0.28125,0 0.28125,-0.15625 0,-0.1875 -0.171875,-0.1875 -0.28125,-0.1875 H 1.03125 c -0.109375,0 -0.28125,0 -0.28125,0.171875 0,0.171875 0.15625,0.171875 0.28125,0.171875 z m 0,0"
               id="id-1b902013-b0c5-40c9-bca2-e92acd7da91d" />
          </symbol>
          <symbol
             overflow="visible"
             id="id-29952e43-1816-4b38-9ccb-6625dc7a5c83">
            <path
               style="stroke:none"
               d=""
               id="id-1d29b313-2030-49e9-b736-7bc47c09fc38" />
          </symbol>
          <symbol
             overflow="visible"
             id="id-9e12e95d-4555-4025-973a-638c170d55f6">
            <path
               style="stroke:none"
               d="m 2.328125,-4.4375 c 0,-0.1875 0,-0.1875 -0.203125,-0.1875 -0.453125,0.4375 -1.078125,0.4375 -1.359375,0.4375 v 0.25 c 0.15625,0 0.625,0 1,-0.1875 v 3.546875 c 0,0.234375 0,0.328125 -0.6875,0.328125 H 0.8125 V 0 c 0.125,0 0.984375,-0.03125 1.234375,-0.03125 0.21875,0 1.09375,0.03125 1.25,0.03125 V -0.25 H 3.03125 c -0.703125,0 -0.703125,-0.09375 -0.703125,-0.328125 z m 0,0"
               id="id-d97e011e-5f55-48a7-a275-a73510355214" />
          </symbol>
          <symbol
             overflow="visible"
             id="id-e9840bae-a551-468e-9243-e29c7407f340">
            <path
               style="stroke:none"
               d="M 3.515625,-1.265625 H 3.28125 c -0.015625,0.15625 -0.09375,0.5625 -0.1875,0.625 C 3.046875,-0.59375 2.515625,-0.59375 2.40625,-0.59375 H 1.125 c 0.734375,-0.640625 0.984375,-0.84375 1.390625,-1.171875 0.515625,-0.40625 1,-0.84375 1,-1.5 0,-0.84375 -0.734375,-1.359375 -1.625,-1.359375 -0.859375,0 -1.453125,0.609375 -1.453125,1.25 0,0.34375 0.296875,0.390625 0.375,0.390625 0.15625,0 0.359375,-0.125 0.359375,-0.375 0,-0.125 -0.046875,-0.375 -0.40625,-0.375 C 0.984375,-4.21875 1.453125,-4.375 1.78125,-4.375 c 0.703125,0 1.0625,0.546875 1.0625,1.109375 0,0.609375 -0.4375,1.078125 -0.65625,1.328125 L 0.515625,-0.265625 C 0.4375,-0.203125 0.4375,-0.1875 0.4375,0 h 2.875 z m 0,0"
               id="id-12724ca9-7709-48e5-a003-37563c1c0de5" />
          </symbol>
          <symbol
             overflow="visible"
             id="id-08884f9d-1a99-458b-9251-3a5e29043781">
            <path
               style="stroke:none"
               d="m 1.90625,-2.328125 c 0.546875,0 0.9375,0.375 0.9375,1.125 0,0.859375 -0.515625,1.125 -0.90625,1.125 -0.28125,0 -0.90625,-0.078125 -1.1875,-0.5 0.328125,0 0.40625,-0.234375 0.40625,-0.390625 0,-0.21875 -0.171875,-0.375 -0.390625,-0.375 -0.1875,0 -0.390625,0.125 -0.390625,0.40625 0,0.65625 0.71875,1.078125 1.5625,1.078125 0.96875,0 1.640625,-0.65625 1.640625,-1.34375 0,-0.546875 -0.4375,-1.09375 -1.203125,-1.25 0.71875,-0.265625 0.984375,-0.78125 0.984375,-1.21875 0,-0.546875 -0.625,-0.953125 -1.40625,-0.953125 -0.765625,0 -1.359375,0.375 -1.359375,0.9375 0,0.234375 0.15625,0.359375 0.359375,0.359375 0.21875,0 0.359375,-0.15625 0.359375,-0.34375 0,-0.203125 -0.140625,-0.359375 -0.359375,-0.375 0.25,-0.296875 0.71875,-0.375 0.984375,-0.375 0.3125,0 0.75,0.15625 0.75,0.75 0,0.296875 -0.09375,0.625 -0.28125,0.828125 -0.21875,0.265625 -0.421875,0.28125 -0.765625,0.3125 -0.171875,0.015625 -0.1875,0.015625 -0.21875,0.015625 -0.015625,0 -0.078125,0.015625 -0.078125,0.09375 0,0.09375 0.0625,0.09375 0.1875,0.09375 z m 0,0"
               id="id-c692ffb3-48ed-4d7b-9f6f-0a02f3a4b266" />
          </symbol>
        </g>
      </defs>
      <g
         id="id-16d4fa37-c5c6-4e00-b054-6316971b54d2"
         transform="translate(-149.103,-124.671)">
        <g
           style="fill:#000000;fill-opacity:1"
           id="id-80cb4382-59da-42d6-8f72-3522910b5995">
          <g
             transform="translate(148.712,139.651)"
             id="g3362">
            <path
               style="stroke:none"
               d="M 7.609375,-6.046875 C 7.703125,-6.40625 7.71875,-6.5 8.4375,-6.5 c 0.265625,0 0.34375,0 0.34375,-0.203125 0,-0.109375 -0.109375,-0.109375 -0.140625,-0.109375 -0.28125,0 -1,0.03125 -1.28125,0.03125 -0.28125,0 -0.984375,-0.03125 -1.28125,-0.03125 -0.078125,0 -0.1875,0 -0.1875,0.203125 0,0.109375 0.09375,0.109375 0.28125,0.109375 0.015625,0 0.203125,0 0.375,0.015625 0.1875,0.03125 0.265625,0.03125 0.265625,0.171875 0,0.03125 0,0.046875 -0.03125,0.1875 L 6.1875,-3.703125 H 3.140625 l 0.59375,-2.34375 C 3.8125,-6.40625 3.84375,-6.5 4.5625,-6.5 c 0.265625,0 0.34375,0 0.34375,-0.203125 0,-0.109375 -0.109375,-0.109375 -0.140625,-0.109375 -0.28125,0 -1,0.03125 -1.28125,0.03125 -0.28125,0 -0.984375,-0.03125 -1.28125,-0.03125 -0.078125,0 -0.1875,0 -0.1875,0.203125 0,0.109375 0.09375,0.109375 0.28125,0.109375 0.015625,0 0.203125,0 0.375,0.015625 0.171875,0.03125 0.265625,0.03125 0.265625,0.171875 0,0.03125 0,0.0625 -0.03125,0.1875 L 1.5625,-0.78125 c -0.09375,0.390625 -0.109375,0.46875 -0.90625,0.46875 -0.171875,0 -0.265625,0 -0.265625,0.203125 C 0.390625,0 0.515625,0 0.53125,0 0.8125,0 1.515625,-0.03125 1.796875,-0.03125 2,-0.03125 2.21875,-0.015625 2.4375,-0.015625 2.65625,-0.015625 2.875,0 3.078125,0 3.15625,0 3.28125,0 3.28125,-0.203125 3.28125,-0.3125 3.1875,-0.3125 3,-0.3125 c -0.375,0 -0.640625,0 -0.640625,-0.171875 0,-0.0625 0.015625,-0.109375 0.015625,-0.171875 l 0.6875,-2.734375 h 3.03125 c -0.40625,1.65625 -0.640625,2.609375 -0.6875,2.75 C 5.3125,-0.3125 5.125,-0.3125 4.5,-0.3125 c -0.140625,0 -0.234375,0 -0.234375,0.203125 C 4.265625,0 4.390625,0 4.40625,0 4.6875,0 5.390625,-0.03125 5.671875,-0.03125 5.875,-0.03125 6.09375,-0.015625 6.3125,-0.015625 6.53125,-0.015625 6.75,0 6.953125,0 7.03125,0 7.15625,0 7.15625,-0.203125 7.15625,-0.3125 7.0625,-0.3125 6.875,-0.3125 c -0.359375,0 -0.640625,0 -0.640625,-0.171875 0,-0.0625 0.015625,-0.109375 0.03125,-0.171875 z m 0,0"
               id="id-b8a02e31-4866-4b50-8c70-0ebb5afa2e31" />
          </g>
        </g>
        <g
           style="fill:#000000;fill-opacity:1"
           id="id-d9da93b5-6de4-4fa1-b4a8-c6949b4bba9d">
          <g
             transform="translate(157.803,139.651)"
             id="g3366">
            <path
               style="stroke:none"
               d="m 3.296875,2.390625 c 0,-0.03125 0,-0.046875 -0.171875,-0.21875 C 1.890625,0.921875 1.5625,-0.96875 1.5625,-2.5 c 0,-1.734375 0.375,-3.46875 1.609375,-4.703125 0.125,-0.125 0.125,-0.140625 0.125,-0.171875 0,-0.078125 -0.03125,-0.109375 -0.09375,-0.109375 -0.109375,0 -1,0.6875 -1.59375,1.953125 -0.5,1.09375 -0.625,2.203125 -0.625,3.03125 0,0.78125 0.109375,1.984375 0.65625,3.125 C 2.25,1.84375 3.09375,2.5 3.203125,2.5 c 0.0625,0 0.09375,-0.03125 0.09375,-0.109375 z m 0,0"
               id="id-89619a16-484b-42b5-902d-df9001557b94" />
          </g>
        </g>
        <g
           style="fill:#000000;fill-opacity:1"
           id="id-315c01cd-253c-4164-bd21-8163fdb13a9f">
          <g
             transform="translate(161.678,139.651)"
             id="g3370">
            <path
               style="stroke:none"
               d="m 1.328125,-0.828125 c 0.53125,-0.578125 0.828125,-0.828125 1.1875,-1.140625 0,0 0.609375,-0.53125 0.96875,-0.890625 C 4.4375,-3.78125 4.65625,-4.265625 4.65625,-4.3125 c 0,-0.09375 -0.09375,-0.09375 -0.109375,-0.09375 -0.078125,0 -0.09375,0.015625 -0.15625,0.109375 -0.296875,0.484375 -0.5,0.640625 -0.734375,0.640625 -0.25,0 -0.359375,-0.15625 -0.515625,-0.328125 -0.1875,-0.21875 -0.359375,-0.421875 -0.6875,-0.421875 -0.75,0 -1.203125,0.921875 -1.203125,1.140625 0,0.046875 0.03125,0.109375 0.109375,0.109375 0.09375,0 0.109375,-0.046875 0.140625,-0.109375 0.1875,-0.46875 0.765625,-0.46875 0.84375,-0.46875 0.203125,0 0.390625,0.0625 0.625,0.140625 0.40625,0.15625 0.515625,0.15625 0.765625,0.15625 -0.359375,0.421875 -1.1875,1.140625 -1.375,1.296875 l -0.90625,0.84375 C 0.78125,-0.625 0.421875,-0.0625 0.421875,0.015625 c 0,0.09375 0.109375,0.09375 0.125,0.09375 0.078125,0 0.09375,-0.015625 0.15625,-0.125 0.234375,-0.359375 0.53125,-0.625 0.859375,-0.625 0.21875,0 0.328125,0.09375 0.578125,0.375 0.15625,0.21875 0.34375,0.375 0.625,0.375 1,0 1.578125,-1.265625 1.578125,-1.53125 0,-0.046875 -0.046875,-0.109375 -0.125,-0.109375 -0.09375,0 -0.109375,0.0625 -0.140625,0.140625 C 3.84375,-0.75 3.203125,-0.5625 2.875,-0.5625 c -0.1875,0 -0.375,-0.0625 -0.578125,-0.125 -0.34375,-0.125 -0.5,-0.171875 -0.703125,-0.171875 -0.015625,0 -0.171875,0 -0.265625,0.03125 z m 0,0"
               id="id-1346b54f-7b1d-489f-b131-d8b47d2f69bd" />
          </g>
        </g>
        <g
           style="fill:#000000;fill-opacity:1"
           id="id-766d26f7-5f23-4cc4-9ad2-a70a23dca8b6">
          <g
             transform="translate(166.749,139.651)"
             id="g3374">
            <path
               style="stroke:none"
               d="m 2.875,-2.5 c 0,-0.765625 -0.109375,-1.96875 -0.65625,-3.109375 -0.59375,-1.21875 -1.453125,-1.875 -1.546875,-1.875 -0.0625,0 -0.109375,0.046875 -0.109375,0.109375 0,0.03125 0,0.046875 0.1875,0.234375 0.984375,0.984375 1.546875,2.5625 1.546875,4.640625 0,1.71875 -0.359375,3.46875 -1.59375,4.71875 C 0.5625,2.34375 0.5625,2.359375 0.5625,2.390625 0.5625,2.453125 0.609375,2.5 0.671875,2.5 0.765625,2.5 1.671875,1.8125 2.25,0.546875 2.765625,-0.546875 2.875,-1.65625 2.875,-2.5 Z m 0,0"
               id="id-02856651-9909-4919-9803-cc5baa5898bd" />
          </g>
        </g>
        <g
           style="fill:#000000;fill-opacity:1"
           id="id-7cd394b8-f5f1-46fa-9036-3ab51707535e">
          <g
             transform="translate(173.393,139.651)"
             id="g3378">
            <path
               style="stroke:none"
               d="m 6.84375,-3.265625 c 0.15625,0 0.34375,0 0.34375,-0.1875 C 7.1875,-3.65625 7,-3.65625 6.859375,-3.65625 h -5.96875 c -0.140625,0 -0.328125,0 -0.328125,0.203125 0,0.1875 0.1875,0.1875 0.328125,0.1875 z m 0.015625,1.9375 c 0.140625,0 0.328125,0 0.328125,-0.203125 0,-0.1875 -0.1875,-0.1875 -0.34375,-0.1875 H 0.890625 c -0.140625,0 -0.328125,0 -0.328125,0.1875 0,0.203125 0.1875,0.203125 0.328125,0.203125 z m 0,0"
               id="id-81f83882-1123-4857-883d-26d16ccaa471" />
          </g>
        </g>
        <g
           style="fill:#000000;fill-opacity:1"
           id="id-f9251257-a2f1-45b6-a6d9-139c44909c57">
          <g
             transform="translate(185.102,132.912)"
             id="g3382">
            <path
               style="stroke:none"
               d="m 4.578125,-3.1875 c 0,-0.796875 -0.046875,-1.59375 -0.390625,-2.328125 -0.453125,-0.96875 -1.28125,-1.125 -1.6875,-1.125 -0.609375,0 -1.328125,0.265625 -1.75,1.1875 -0.3125,0.6875 -0.359375,1.46875 -0.359375,2.265625 0,0.75 0.03125,1.640625 0.453125,2.40625 0.421875,0.796875 1.15625,1 1.640625,1 0.53125,0 1.296875,-0.203125 1.734375,-1.15625 0.3125,-0.6875 0.359375,-1.46875 0.359375,-2.25 z M 2.484375,0 C 2.09375,0 1.5,-0.25 1.328125,-1.203125 1.21875,-1.796875 1.21875,-2.71875 1.21875,-3.3125 c 0,-0.640625 0,-1.296875 0.078125,-1.828125 0.1875,-1.1875 0.9375,-1.28125 1.1875,-1.28125 0.328125,0 0.984375,0.1875 1.171875,1.171875 0.109375,0.5625 0.109375,1.3125 0.109375,1.9375 0,0.75 0,1.421875 -0.109375,2.0625 C 3.5,-0.296875 2.9375,0 2.484375,0 Z m 0,0"
               id="id-fba0bcc2-ca4f-40d6-af64-74002ae7b6ce" />
          </g>
        </g>
        <g
           style="fill:#000000;fill-opacity:1"
           id="id-a318785b-5790-489d-aa48-020f01cd49a0">
          <g
             transform="translate(190.083,132.912)"
             id="g3386">
            <path
               style="stroke:none"
               d="m 1.90625,-0.53125 c 0,-0.28125 -0.234375,-0.53125 -0.515625,-0.53125 -0.296875,0 -0.53125,0.25 -0.53125,0.53125 C 0.859375,-0.234375 1.09375,0 1.390625,0 1.671875,0 1.90625,-0.234375 1.90625,-0.53125 Z m 0,0"
               id="id-05874d8e-9c85-4436-b2ca-f6106c6bd3e2" />
          </g>
        </g>
        <g
           style="fill:#000000;fill-opacity:1"
           id="id-be55d652-b658-4a35-9f4b-d557698dcd80">
          <g
             transform="translate(192.851,132.912)"
             id="g3390">
            <path
               style="stroke:none"
               d="m 4.46875,-2 c 0,-1.1875 -0.8125,-2.1875 -1.890625,-2.1875 -0.46875,0 -0.90625,0.15625 -1.265625,0.515625 V -5.625 c 0.203125,0.0625 0.53125,0.125 0.84375,0.125 1.234375,0 1.9375,-0.90625 1.9375,-1.03125 0,-0.0625 -0.03125,-0.109375 -0.109375,-0.109375 0,0 -0.03125,0 -0.078125,0.03125 C 3.703125,-6.515625 3.21875,-6.3125 2.546875,-6.3125 2.15625,-6.3125 1.6875,-6.390625 1.21875,-6.59375 1.140625,-6.625 1.125,-6.625 1.109375,-6.625 1,-6.625 1,-6.546875 1,-6.390625 V -3.4375 c 0,0.171875 0,0.25 0.140625,0.25 0.078125,0 0.09375,-0.015625 0.140625,-0.078125 C 1.390625,-3.421875 1.75,-3.96875 2.5625,-3.96875 c 0.515625,0 0.765625,0.453125 0.84375,0.640625 0.15625,0.375 0.1875,0.75 0.1875,1.25 0,0.359375 0,0.953125 -0.25,1.375 C 3.109375,-0.3125 2.734375,-0.0625 2.28125,-0.0625 c -0.71875,0 -1.296875,-0.53125 -1.46875,-1.109375 0.03125,0 0.0625,0.015625 0.171875,0.015625 0.328125,0 0.5,-0.25 0.5,-0.484375 0,-0.25 -0.171875,-0.5 -0.5,-0.5 C 0.84375,-2.140625 0.5,-2.0625 0.5,-1.609375 0.5,-0.75 1.1875,0.21875 2.296875,0.21875 3.453125,0.21875 4.46875,-0.734375 4.46875,-2 Z m 0,0"
               id="id-06aae06a-971d-4c0f-968e-64552b883de1" />
          </g>
        </g>
        <g
           style="fill:#000000;fill-opacity:1"
           id="id-257b8a12-8402-4859-b7b4-3570083abc25">
          <g
             transform="translate(200.044,132.912)"
             id="g3394">
            <path
               style="stroke:none"
               d="m 4.078125,-2.296875 h 2.78125 C 7,-2.296875 7.1875,-2.296875 7.1875,-2.5 7.1875,-2.6875 7,-2.6875 6.859375,-2.6875 h -2.78125 v -2.796875 c 0,-0.140625 0,-0.328125 -0.203125,-0.328125 -0.203125,0 -0.203125,0.1875 -0.203125,0.328125 V -2.6875 h -2.78125 c -0.140625,0 -0.328125,0 -0.328125,0.1875 0,0.203125 0.1875,0.203125 0.328125,0.203125 h 2.78125 V 0.5 c 0,0.140625 0,0.328125 0.203125,0.328125 0.203125,0 0.203125,-0.1875 0.203125,-0.328125 z m 0,0"
               id="id-0418eaa4-2059-4af4-a183-0c7d64174a27" />
          </g>
        </g>
        <g
           style="fill:#000000;fill-opacity:1"
           id="id-28d3f268-e73b-41f9-b691-a165c90b6c5f">
          <g
             transform="translate(210.009,132.912)"
             id="g3398">
            <path
               style="stroke:none"
               d="m 1.328125,-0.828125 c 0.53125,-0.578125 0.828125,-0.828125 1.1875,-1.140625 0,0 0.609375,-0.53125 0.96875,-0.890625 C 4.4375,-3.78125 4.65625,-4.265625 4.65625,-4.3125 c 0,-0.09375 -0.09375,-0.09375 -0.109375,-0.09375 -0.078125,0 -0.09375,0.015625 -0.15625,0.109375 -0.296875,0.484375 -0.5,0.640625 -0.734375,0.640625 -0.25,0 -0.359375,-0.15625 -0.515625,-0.328125 -0.1875,-0.21875 -0.359375,-0.421875 -0.6875,-0.421875 -0.75,0 -1.203125,0.921875 -1.203125,1.140625 0,0.046875 0.03125,0.109375 0.109375,0.109375 0.09375,0 0.109375,-0.046875 0.140625,-0.109375 0.1875,-0.46875 0.765625,-0.46875 0.84375,-0.46875 0.203125,0 0.390625,0.0625 0.625,0.140625 0.40625,0.15625 0.515625,0.15625 0.765625,0.15625 -0.359375,0.421875 -1.1875,1.140625 -1.375,1.296875 l -0.90625,0.84375 C 0.78125,-0.625 0.421875,-0.0625 0.421875,0.015625 c 0,0.09375 0.109375,0.09375 0.125,0.09375 0.078125,0 0.09375,-0.015625 0.15625,-0.125 0.234375,-0.359375 0.53125,-0.625 0.859375,-0.625 0.21875,0 0.328125,0.09375 0.578125,0.375 0.15625,0.21875 0.34375,0.375 0.625,0.375 1,0 1.578125,-1.265625 1.578125,-1.53125 0,-0.046875 -0.046875,-0.109375 -0.125,-0.109375 -0.09375,0 -0.109375,0.0625 -0.140625,0.140625 C 3.84375,-0.75 3.203125,-0.5625 2.875,-0.5625 c -0.1875,0 -0.375,-0.0625 -0.578125,-0.125 -0.34375,-0.125 -0.5,-0.171875 -0.703125,-0.171875 -0.015625,0 -0.171875,0 -0.265625,0.03125 z m 0,0"
               id="id-bb85f7c5-5c2a-464f-9af1-c09831a22994" />
          </g>
        </g>
        <g
           style="fill:#000000;fill-opacity:1"
           id="id-9b00eca6-bf4a-48c1-bd8c-b4ff12f29c68">
          <g
             transform="translate(215.08,129.296)"
             id="g3402">
            <path
               style="stroke:none"
               d="m 5.1875,-1.578125 c 0.109375,0 0.28125,0 0.28125,-0.15625 0,-0.1875 -0.171875,-0.1875 -0.28125,-0.1875 H 1.03125 c -0.109375,0 -0.28125,0 -0.28125,0.171875 0,0.171875 0.15625,0.171875 0.28125,0.171875 z m 0,0"
               id="id-a26eda86-da7f-4da7-a605-f243825bd3dd" />
          </g>
        </g>
        <g
           style="fill:#000000;fill-opacity:1"
           id="id-51dfbce5-768f-4a4f-9c74-5e65f7d55979">
          <g
             transform="translate(221.307,129.296)"
             id="g3406">
            <path
               style="stroke:none"
               d="m 2.328125,-4.4375 c 0,-0.1875 0,-0.1875 -0.203125,-0.1875 -0.453125,0.4375 -1.078125,0.4375 -1.359375,0.4375 v 0.25 c 0.15625,0 0.625,0 1,-0.1875 v 3.546875 c 0,0.234375 0,0.328125 -0.6875,0.328125 H 0.8125 V 0 c 0.125,0 0.984375,-0.03125 1.234375,-0.03125 0.21875,0 1.09375,0.03125 1.25,0.03125 V -0.25 H 3.03125 c -0.703125,0 -0.703125,-0.09375 -0.703125,-0.328125 z m 0,0"
               id="id-7d65c28d-c2b7-4c1a-bf94-de716e170aac" />
          </g>
        </g>
        <g
           style="fill:#000000;fill-opacity:1"
           id="id-88f9b911-a041-4db9-ad8c-eb8babbf422d">
          <g
             transform="translate(227.99,132.912)"
             id="g3410">
            <path
               style="stroke:none"
               d="m 4.078125,-2.296875 h 2.78125 C 7,-2.296875 7.1875,-2.296875 7.1875,-2.5 7.1875,-2.6875 7,-2.6875 6.859375,-2.6875 h -2.78125 v -2.796875 c 0,-0.140625 0,-0.328125 -0.203125,-0.328125 -0.203125,0 -0.203125,0.1875 -0.203125,0.328125 V -2.6875 h -2.78125 c -0.140625,0 -0.328125,0 -0.328125,0.1875 0,0.203125 0.1875,0.203125 0.328125,0.203125 h 2.78125 V 0.5 c 0,0.140625 0,0.328125 0.203125,0.328125 0.203125,0 0.203125,-0.1875 0.203125,-0.328125 z m 0,0"
               id="id-bd1399b3-4d42-420a-9afb-520cbc972c01" />
          </g>
        </g>
        <g
           style="fill:#000000;fill-opacity:1"
           id="id-84ec8768-42dc-4d4f-9422-436e5d017271">
          <g
             transform="translate(237.953,132.912)"
             id="g3414">
            <path
               style="stroke:none"
               d="m 1.328125,-0.828125 c 0.53125,-0.578125 0.828125,-0.828125 1.1875,-1.140625 0,0 0.609375,-0.53125 0.96875,-0.890625 C 4.4375,-3.78125 4.65625,-4.265625 4.65625,-4.3125 c 0,-0.09375 -0.09375,-0.09375 -0.109375,-0.09375 -0.078125,0 -0.09375,0.015625 -0.15625,0.109375 -0.296875,0.484375 -0.5,0.640625 -0.734375,0.640625 -0.25,0 -0.359375,-0.15625 -0.515625,-0.328125 -0.1875,-0.21875 -0.359375,-0.421875 -0.6875,-0.421875 -0.75,0 -1.203125,0.921875 -1.203125,1.140625 0,0.046875 0.03125,0.109375 0.109375,0.109375 0.09375,0 0.109375,-0.046875 0.140625,-0.109375 0.1875,-0.46875 0.765625,-0.46875 0.84375,-0.46875 0.203125,0 0.390625,0.0625 0.625,0.140625 0.40625,0.15625 0.515625,0.15625 0.765625,0.15625 -0.359375,0.421875 -1.1875,1.140625 -1.375,1.296875 l -0.90625,0.84375 C 0.78125,-0.625 0.421875,-0.0625 0.421875,0.015625 c 0,0.09375 0.109375,0.09375 0.125,0.09375 0.078125,0 0.09375,-0.015625 0.15625,-0.125 0.234375,-0.359375 0.53125,-0.625 0.859375,-0.625 0.21875,0 0.328125,0.09375 0.578125,0.375 0.15625,0.21875 0.34375,0.375 0.625,0.375 1,0 1.578125,-1.265625 1.578125,-1.53125 0,-0.046875 -0.046875,-0.109375 -0.125,-0.109375 -0.09375,0 -0.109375,0.0625 -0.140625,0.140625 C 3.84375,-0.75 3.203125,-0.5625 2.875,-0.5625 c -0.1875,0 -0.375,-0.0625 -0.578125,-0.125 -0.34375,-0.125 -0.5,-0.171875 -0.703125,-0.171875 -0.015625,0 -0.171875,0 -0.265625,0.03125 z m 0,0"
               id="id-acf63b8f-b1f4-4aae-8d14-575c4b03f716" />
          </g>
        </g>
        <g
           style="fill:#000000;fill-opacity:1"
           id="id-10a30a60-dcc6-44fe-9cfd-f92bc91a6f3d">
          <g
             transform="translate(243.024,129.296)"
             id="g3418">
            <path
               style="stroke:none"
               d="m 5.1875,-1.578125 c 0.109375,0 0.28125,0 0.28125,-0.15625 0,-0.1875 -0.171875,-0.1875 -0.28125,-0.1875 H 1.03125 c -0.109375,0 -0.28125,0 -0.28125,0.171875 0,0.171875 0.15625,0.171875 0.28125,0.171875 z m 0,0"
               id="id-e915f162-5842-4831-a8c2-f21f8b439909" />
          </g>
        </g>
        <g
           style="fill:#000000;fill-opacity:1"
           id="id-d2645f1b-0b35-4a8c-9650-dbc6c285f35b">
          <g
             transform="translate(249.25,129.296)"
             id="g3422">
            <path
               style="stroke:none"
               d="M 3.515625,-1.265625 H 3.28125 c -0.015625,0.15625 -0.09375,0.5625 -0.1875,0.625 C 3.046875,-0.59375 2.515625,-0.59375 2.40625,-0.59375 H 1.125 c 0.734375,-0.640625 0.984375,-0.84375 1.390625,-1.171875 0.515625,-0.40625 1,-0.84375 1,-1.5 0,-0.84375 -0.734375,-1.359375 -1.625,-1.359375 -0.859375,0 -1.453125,0.609375 -1.453125,1.25 0,0.34375 0.296875,0.390625 0.375,0.390625 0.15625,0 0.359375,-0.125 0.359375,-0.375 0,-0.125 -0.046875,-0.375 -0.40625,-0.375 C 0.984375,-4.21875 1.453125,-4.375 1.78125,-4.375 c 0.703125,0 1.0625,0.546875 1.0625,1.109375 0,0.609375 -0.4375,1.078125 -0.65625,1.328125 L 0.515625,-0.265625 C 0.4375,-0.203125 0.4375,-0.1875 0.4375,0 h 2.875 z m 0,0"
               id="id-34533fc8-779b-4c62-8cf9-b4c40583e9cc" />
          </g>
        </g>
        <g
           style="fill:#000000;fill-opacity:1"
           id="id-3df6560f-156b-43b7-965f-c335f3da6042">
          <g
             transform="translate(255.934,132.912)"
             id="g3426">
            <path
               style="stroke:none"
               d="m 4.078125,-2.296875 h 2.78125 C 7,-2.296875 7.1875,-2.296875 7.1875,-2.5 7.1875,-2.6875 7,-2.6875 6.859375,-2.6875 h -2.78125 v -2.796875 c 0,-0.140625 0,-0.328125 -0.203125,-0.328125 -0.203125,0 -0.203125,0.1875 -0.203125,0.328125 V -2.6875 h -2.78125 c -0.140625,0 -0.328125,0 -0.328125,0.1875 0,0.203125 0.1875,0.203125 0.328125,0.203125 h 2.78125 V 0.5 c 0,0.140625 0,0.328125 0.203125,0.328125 0.203125,0 0.203125,-0.1875 0.203125,-0.328125 z m 0,0"
               id="id-0aa623d2-434d-41dc-8d25-64e5c0acaeeb" />
          </g>
        </g>
        <g
           style="fill:#000000;fill-opacity:1"
           id="id-dcfce1f8-5141-47eb-acf2-22ea3e04eb23">
          <g
             transform="translate(265.895,132.912)"
             id="g3430">
            <path
               style="stroke:none"
               d="m 4.578125,-3.1875 c 0,-0.796875 -0.046875,-1.59375 -0.390625,-2.328125 -0.453125,-0.96875 -1.28125,-1.125 -1.6875,-1.125 -0.609375,0 -1.328125,0.265625 -1.75,1.1875 -0.3125,0.6875 -0.359375,1.46875 -0.359375,2.265625 0,0.75 0.03125,1.640625 0.453125,2.40625 0.421875,0.796875 1.15625,1 1.640625,1 0.53125,0 1.296875,-0.203125 1.734375,-1.15625 0.3125,-0.6875 0.359375,-1.46875 0.359375,-2.25 z M 2.484375,0 C 2.09375,0 1.5,-0.25 1.328125,-1.203125 1.21875,-1.796875 1.21875,-2.71875 1.21875,-3.3125 c 0,-0.640625 0,-1.296875 0.078125,-1.828125 0.1875,-1.1875 0.9375,-1.28125 1.1875,-1.28125 0.328125,0 0.984375,0.1875 1.171875,1.171875 0.109375,0.5625 0.109375,1.3125 0.109375,1.9375 0,0.75 0,1.421875 -0.109375,2.0625 C 3.5,-0.296875 2.9375,0 2.484375,0 Z m 0,0"
               id="id-099c8d31-ddff-446e-9596-30d1200c2853" />
          </g>
        </g>
        <g
           style="fill:#000000;fill-opacity:1"
           id="id-fc1cc88d-460b-418e-890c-04acc6664b88">
          <g
             transform="translate(270.878,132.912)"
             id="g3434">
            <path
               style="stroke:none"
               d="m 1.90625,-0.53125 c 0,-0.28125 -0.234375,-0.53125 -0.515625,-0.53125 -0.296875,0 -0.53125,0.25 -0.53125,0.53125 C 0.859375,-0.234375 1.09375,0 1.390625,0 1.671875,0 1.90625,-0.234375 1.90625,-0.53125 Z m 0,0"
               id="id-6091c3e4-bf17-4f89-b4c3-42272dffe08b" />
          </g>
        </g>
        <g
           style="fill:#000000;fill-opacity:1"
           id="id-8386975a-a61c-4521-bce2-6d1b7d718589">
          <g
             transform="translate(273.645,132.912)"
             id="g3438">
            <path
               style="stroke:none"
               d="m 4.46875,-2 c 0,-1.1875 -0.8125,-2.1875 -1.890625,-2.1875 -0.46875,0 -0.90625,0.15625 -1.265625,0.515625 V -5.625 c 0.203125,0.0625 0.53125,0.125 0.84375,0.125 1.234375,0 1.9375,-0.90625 1.9375,-1.03125 0,-0.0625 -0.03125,-0.109375 -0.109375,-0.109375 0,0 -0.03125,0 -0.078125,0.03125 C 3.703125,-6.515625 3.21875,-6.3125 2.546875,-6.3125 2.15625,-6.3125 1.6875,-6.390625 1.21875,-6.59375 1.140625,-6.625 1.125,-6.625 1.109375,-6.625 1,-6.625 1,-6.546875 1,-6.390625 V -3.4375 c 0,0.171875 0,0.25 0.140625,0.25 0.078125,0 0.09375,-0.015625 0.140625,-0.078125 C 1.390625,-3.421875 1.75,-3.96875 2.5625,-3.96875 c 0.515625,0 0.765625,0.453125 0.84375,0.640625 0.15625,0.375 0.1875,0.75 0.1875,1.25 0,0.359375 0,0.953125 -0.25,1.375 C 3.109375,-0.3125 2.734375,-0.0625 2.28125,-0.0625 c -0.71875,0 -1.296875,-0.53125 -1.46875,-1.109375 0.03125,0 0.0625,0.015625 0.171875,0.015625 0.328125,0 0.5,-0.25 0.5,-0.484375 0,-0.25 -0.171875,-0.5 -0.5,-0.5 C 0.84375,-2.140625 0.5,-2.0625 0.5,-1.609375 0.5,-0.75 1.1875,0.21875 2.296875,0.21875 3.453125,0.21875 4.46875,-0.734375 4.46875,-2 Z m 0,0"
               id="id-940f6741-4251-4346-9258-44d5f18d9801" />
          </g>
        </g>
        <g
           style="fill:#000000;fill-opacity:1"
           id="id-03e5343f-7fb9-44aa-b917-624691e33b92">
          <g
             transform="translate(278.626,132.912)"
             id="g3442">
            <path
               style="stroke:none"
               d="m 1.328125,-0.828125 c 0.53125,-0.578125 0.828125,-0.828125 1.1875,-1.140625 0,0 0.609375,-0.53125 0.96875,-0.890625 C 4.4375,-3.78125 4.65625,-4.265625 4.65625,-4.3125 c 0,-0.09375 -0.09375,-0.09375 -0.109375,-0.09375 -0.078125,0 -0.09375,0.015625 -0.15625,0.109375 -0.296875,0.484375 -0.5,0.640625 -0.734375,0.640625 -0.25,0 -0.359375,-0.15625 -0.515625,-0.328125 -0.1875,-0.21875 -0.359375,-0.421875 -0.6875,-0.421875 -0.75,0 -1.203125,0.921875 -1.203125,1.140625 0,0.046875 0.03125,0.109375 0.109375,0.109375 0.09375,0 0.109375,-0.046875 0.140625,-0.109375 0.1875,-0.46875 0.765625,-0.46875 0.84375,-0.46875 0.203125,0 0.390625,0.0625 0.625,0.140625 0.40625,0.15625 0.515625,0.15625 0.765625,0.15625 -0.359375,0.421875 -1.1875,1.140625 -1.375,1.296875 l -0.90625,0.84375 C 0.78125,-0.625 0.421875,-0.0625 0.421875,0.015625 c 0,0.09375 0.109375,0.09375 0.125,0.09375 0.078125,0 0.09375,-0.015625 0.15625,-0.125 0.234375,-0.359375 0.53125,-0.625 0.859375,-0.625 0.21875,0 0.328125,0.09375 0.578125,0.375 0.15625,0.21875 0.34375,0.375 0.625,0.375 1,0 1.578125,-1.265625 1.578125,-1.53125 0,-0.046875 -0.046875,-0.109375 -0.125,-0.109375 -0.09375,0 -0.109375,0.0625 -0.140625,0.140625 C 3.84375,-0.75 3.203125,-0.5625 2.875,-0.5625 c -0.1875,0 -0.375,-0.0625 -0.578125,-0.125 -0.34375,-0.125 -0.5,-0.171875 -0.703125,-0.171875 -0.015625,0 -0.171875,0 -0.265625,0.03125 z m 0,0"
               id="id-20b161c0-ed3b-4bb8-82e3-e424420ed42e" />
          </g>
        </g>
        <g
           style="fill:#000000;fill-opacity:1"
           id="id-fa0524a8-97cf-4c20-bb7a-cc5f6e425e95">
          <g
             transform="translate(283.698,129.296)"
             id="g3446">
            <path
               style="stroke:none"
               d="m 5.1875,-1.578125 c 0.109375,0 0.28125,0 0.28125,-0.15625 0,-0.1875 -0.171875,-0.1875 -0.28125,-0.1875 H 1.03125 c -0.109375,0 -0.28125,0 -0.28125,0.171875 0,0.171875 0.15625,0.171875 0.28125,0.171875 z m 0,0"
               id="id-ca49bef6-9f48-4f88-a8b2-5c353939cd93" />
          </g>
        </g>
        <g
           style="fill:#000000;fill-opacity:1"
           id="id-6950dbae-4ed8-4b05-9a68-61d1f375e29c">
          <g
             transform="translate(289.924,129.296)"
             id="g3450">
            <path
               style="stroke:none"
               d="m 1.90625,-2.328125 c 0.546875,0 0.9375,0.375 0.9375,1.125 0,0.859375 -0.515625,1.125 -0.90625,1.125 -0.28125,0 -0.90625,-0.078125 -1.1875,-0.5 0.328125,0 0.40625,-0.234375 0.40625,-0.390625 0,-0.21875 -0.171875,-0.375 -0.390625,-0.375 -0.1875,0 -0.390625,0.125 -0.390625,0.40625 0,0.65625 0.71875,1.078125 1.5625,1.078125 0.96875,0 1.640625,-0.65625 1.640625,-1.34375 0,-0.546875 -0.4375,-1.09375 -1.203125,-1.25 0.71875,-0.265625 0.984375,-0.78125 0.984375,-1.21875 0,-0.546875 -0.625,-0.953125 -1.40625,-0.953125 -0.765625,0 -1.359375,0.375 -1.359375,0.9375 0,0.234375 0.15625,0.359375 0.359375,0.359375 0.21875,0 0.359375,-0.15625 0.359375,-0.34375 0,-0.203125 -0.140625,-0.359375 -0.359375,-0.375 0.25,-0.296875 0.71875,-0.375 0.984375,-0.375 0.3125,0 0.75,0.15625 0.75,0.75 0,0.296875 -0.09375,0.625 -0.28125,0.828125 -0.21875,0.265625 -0.421875,0.28125 -0.765625,0.3125 -0.171875,0.015625 -0.1875,0.015625 -0.21875,0.015625 -0.015625,0 -0.078125,0.015625 -0.078125,0.09375 0,0.09375 0.0625,0.09375 0.1875,0.09375 z m 0,0"
               id="id-8d733f31-667e-4bc5-af5f-8c7252663262" />
          </g>
        </g>
        <path
           style="fill:none;stroke:#000000;stroke-width:0.398;stroke-linecap:butt;stroke-linejoin:miter;stroke-miterlimit:10;stroke-opacity:1"
           d="M -4.375e-4,8.4375e-4 H 109.29253"
           transform="matrix(1,0,0,-1,185.102,137.161)"
           id="id-91df7395-c13b-45d4-8fe7-9e25c528637c" />
        <g
           style="fill:#000000;fill-opacity:1"
           id="id-6fb151e1-e2fd-4795-ad6d-0ad708dcda7e">
          <g
             transform="translate(199.074,146.485)"
             id="g3455">
            <path
               style="stroke:none"
               d="m 2.9375,-6.375 c 0,-0.25 0,-0.265625 -0.234375,-0.265625 C 2.078125,-6 1.203125,-6 0.890625,-6 v 0.3125 c 0.203125,0 0.78125,0 1.296875,-0.265625 v 5.171875 c 0,0.359375 -0.03125,0.46875 -0.921875,0.46875 h -0.3125 V 0 c 0.34375,-0.03125 1.203125,-0.03125 1.609375,-0.03125 0.390625,0 1.265625,0 1.609375,0.03125 v -0.3125 h -0.3125 c -0.90625,0 -0.921875,-0.109375 -0.921875,-0.46875 z m 0,0"
               id="id-49f110e7-00f4-42cb-bbba-28257ff318cf" />
          </g>
        </g>
        <g
           style="fill:#000000;fill-opacity:1"
           id="id-4ae45d7b-366d-48e9-b268-6e70b2cd3440">
          <g
             transform="translate(204.055,146.485)"
             id="g3459">
            <path
               style="stroke:none"
               d="m 1.90625,-0.53125 c 0,-0.28125 -0.234375,-0.53125 -0.515625,-0.53125 -0.296875,0 -0.53125,0.25 -0.53125,0.53125 C 0.859375,-0.234375 1.09375,0 1.390625,0 1.671875,0 1.90625,-0.234375 1.90625,-0.53125 Z m 0,0"
               id="id-30f335b8-4bb2-4146-badb-f991182b80ea" />
          </g>
        </g>
        <g
           style="fill:#000000;fill-opacity:1"
           id="id-33d415ad-9487-47fb-832a-f6fc9d4fdb6d">
          <g
             transform="translate(206.823,146.485)"
             id="g3463">
            <path
               style="stroke:none"
               d="m 4.578125,-3.1875 c 0,-0.796875 -0.046875,-1.59375 -0.390625,-2.328125 -0.453125,-0.96875 -1.28125,-1.125 -1.6875,-1.125 -0.609375,0 -1.328125,0.265625 -1.75,1.1875 -0.3125,0.6875 -0.359375,1.46875 -0.359375,2.265625 0,0.75 0.03125,1.640625 0.453125,2.40625 0.421875,0.796875 1.15625,1 1.640625,1 0.53125,0 1.296875,-0.203125 1.734375,-1.15625 0.3125,-0.6875 0.359375,-1.46875 0.359375,-2.25 z M 2.484375,0 C 2.09375,0 1.5,-0.25 1.328125,-1.203125 1.21875,-1.796875 1.21875,-2.71875 1.21875,-3.3125 c 0,-0.640625 0,-1.296875 0.078125,-1.828125 0.1875,-1.1875 0.9375,-1.28125 1.1875,-1.28125 0.328125,0 0.984375,0.1875 1.171875,1.171875 0.109375,0.5625 0.109375,1.3125 0.109375,1.9375 0,0.75 0,1.421875 -0.109375,2.0625 C 3.5,-0.296875 2.9375,0 2.484375,0 Z m 0,0"
               id="id-f2e8165f-36c4-4806-a44a-aa98fc3a2bad" />
          </g>
        </g>
        <g
           style="fill:#000000;fill-opacity:1"
           id="id-93cb36c5-f631-4c8d-b5c0-c51b8c230f0c">
          <g
             transform="translate(214.016,146.485)"
             id="g3467">
            <path
               style="stroke:none"
               d="m 4.078125,-2.296875 h 2.78125 C 7,-2.296875 7.1875,-2.296875 7.1875,-2.5 7.1875,-2.6875 7,-2.6875 6.859375,-2.6875 h -2.78125 v -2.796875 c 0,-0.140625 0,-0.328125 -0.203125,-0.328125 -0.203125,0 -0.203125,0.1875 -0.203125,0.328125 V -2.6875 h -2.78125 c -0.140625,0 -0.328125,0 -0.328125,0.1875 0,0.203125 0.1875,0.203125 0.328125,0.203125 h 2.78125 V 0.5 c 0,0.140625 0,0.328125 0.203125,0.328125 0.203125,0 0.203125,-0.1875 0.203125,-0.328125 z m 0,0"
               id="id-3bb4e0bb-bff7-403a-bc6c-101240636e83" />
          </g>
        </g>
        <g
           style="fill:#000000;fill-opacity:1"
           id="id-10a55ac2-6b4b-44e2-af07-776d725a95eb">
          <g
             transform="translate(223.981,146.485)"
             id="g3471">
            <path
               style="stroke:none"
               d="m 1.328125,-0.828125 c 0.53125,-0.578125 0.828125,-0.828125 1.1875,-1.140625 0,0 0.609375,-0.53125 0.96875,-0.890625 C 4.4375,-3.78125 4.65625,-4.265625 4.65625,-4.3125 c 0,-0.09375 -0.09375,-0.09375 -0.109375,-0.09375 -0.078125,0 -0.09375,0.015625 -0.15625,0.109375 -0.296875,0.484375 -0.5,0.640625 -0.734375,0.640625 -0.25,0 -0.359375,-0.15625 -0.515625,-0.328125 -0.1875,-0.21875 -0.359375,-0.421875 -0.6875,-0.421875 -0.75,0 -1.203125,0.921875 -1.203125,1.140625 0,0.046875 0.03125,0.109375 0.109375,0.109375 0.09375,0 0.109375,-0.046875 0.140625,-0.109375 0.1875,-0.46875 0.765625,-0.46875 0.84375,-0.46875 0.203125,0 0.390625,0.0625 0.625,0.140625 0.40625,0.15625 0.515625,0.15625 0.765625,0.15625 -0.359375,0.421875 -1.1875,1.140625 -1.375,1.296875 l -0.90625,0.84375 C 0.78125,-0.625 0.421875,-0.0625 0.421875,0.015625 c 0,0.09375 0.109375,0.09375 0.125,0.09375 0.078125,0 0.09375,-0.015625 0.15625,-0.125 0.234375,-0.359375 0.53125,-0.625 0.859375,-0.625 0.21875,0 0.328125,0.09375 0.578125,0.375 0.15625,0.21875 0.34375,0.375 0.625,0.375 1,0 1.578125,-1.265625 1.578125,-1.53125 0,-0.046875 -0.046875,-0.109375 -0.125,-0.109375 -0.09375,0 -0.109375,0.0625 -0.140625,0.140625 C 3.84375,-0.75 3.203125,-0.5625 2.875,-0.5625 c -0.1875,0 -0.375,-0.0625 -0.578125,-0.125 -0.34375,-0.125 -0.5,-0.171875 -0.703125,-0.171875 -0.015625,0 -0.171875,0 -0.265625,0.03125 z m 0,0"
               id="id-639ced62-c8db-435e-917a-1b27c151723c" />
          </g>
        </g>
        <g
           style="fill:#000000;fill-opacity:1"
           id="id-5d4bb5b4-1929-415e-9c43-1cab5ae1ad5b">
          <g
             transform="translate(229.052,143.607)"
             id="g3475">
            <path
               style="stroke:none"
               d="m 5.1875,-1.578125 c 0.109375,0 0.28125,0 0.28125,-0.15625 0,-0.1875 -0.171875,-0.1875 -0.28125,-0.1875 H 1.03125 c -0.109375,0 -0.28125,0 -0.28125,0.171875 0,0.171875 0.15625,0.171875 0.28125,0.171875 z m 0,0"
               id="id-60b9e873-963f-4847-bbdc-a9f9bd39f488" />
          </g>
        </g>
        <g
           style="fill:#000000;fill-opacity:1"
           id="id-2bfad4aa-59bc-4285-841d-65a37875b2bc">
          <g
             transform="translate(235.279,143.607)"
             id="g3479">
            <path
               style="stroke:none"
               d="m 2.328125,-4.4375 c 0,-0.1875 0,-0.1875 -0.203125,-0.1875 -0.453125,0.4375 -1.078125,0.4375 -1.359375,0.4375 v 0.25 c 0.15625,0 0.625,0 1,-0.1875 v 3.546875 c 0,0.234375 0,0.328125 -0.6875,0.328125 H 0.8125 V 0 c 0.125,0 0.984375,-0.03125 1.234375,-0.03125 0.21875,0 1.09375,0.03125 1.25,0.03125 V -0.25 H 3.03125 c -0.703125,0 -0.703125,-0.09375 -0.703125,-0.328125 z m 0,0"
               id="id-f66faa15-79fb-4706-853a-e043e5d3666e" />
          </g>
        </g>
        <g
           style="fill:#000000;fill-opacity:1"
           id="id-fdd5e179-c4a2-4ef6-8624-a469bea54139">
          <g
             transform="translate(241.962,146.485)"
             id="g3483">
            <path
               style="stroke:none"
               d="m 4.078125,-2.296875 h 2.78125 C 7,-2.296875 7.1875,-2.296875 7.1875,-2.5 7.1875,-2.6875 7,-2.6875 6.859375,-2.6875 h -2.78125 v -2.796875 c 0,-0.140625 0,-0.328125 -0.203125,-0.328125 -0.203125,0 -0.203125,0.1875 -0.203125,0.328125 V -2.6875 h -2.78125 c -0.140625,0 -0.328125,0 -0.328125,0.1875 0,0.203125 0.1875,0.203125 0.328125,0.203125 h 2.78125 V 0.5 c 0,0.140625 0,0.328125 0.203125,0.328125 0.203125,0 0.203125,-0.1875 0.203125,-0.328125 z m 0,0"
               id="id-85f7b3c0-6bbf-489f-950f-5d2080c81aa3" />
          </g>
        </g>
        <g
           style="fill:#000000;fill-opacity:1"
           id="id-907273dc-67e3-4017-8c4b-abd41beee275">
          <g
             transform="translate(251.923,146.485)"
             id="g3487">
            <path
               style="stroke:none"
               d="m 4.578125,-3.1875 c 0,-0.796875 -0.046875,-1.59375 -0.390625,-2.328125 -0.453125,-0.96875 -1.28125,-1.125 -1.6875,-1.125 -0.609375,0 -1.328125,0.265625 -1.75,1.1875 -0.3125,0.6875 -0.359375,1.46875 -0.359375,2.265625 0,0.75 0.03125,1.640625 0.453125,2.40625 0.421875,0.796875 1.15625,1 1.640625,1 0.53125,0 1.296875,-0.203125 1.734375,-1.15625 0.3125,-0.6875 0.359375,-1.46875 0.359375,-2.25 z M 2.484375,0 C 2.09375,0 1.5,-0.25 1.328125,-1.203125 1.21875,-1.796875 1.21875,-2.71875 1.21875,-3.3125 c 0,-0.640625 0,-1.296875 0.078125,-1.828125 0.1875,-1.1875 0.9375,-1.28125 1.1875,-1.28125 0.328125,0 0.984375,0.1875 1.171875,1.171875 0.109375,0.5625 0.109375,1.3125 0.109375,1.9375 0,0.75 0,1.421875 -0.109375,2.0625 C 3.5,-0.296875 2.9375,0 2.484375,0 Z m 0,0"
               id="id-17d663ae-9361-4ad8-b1db-e24b46b1bce7" />
          </g>
        </g>
        <g
           style="fill:#000000;fill-opacity:1"
           id="id-5c6c58bf-0f33-43c1-8957-3614aeeb2fca">
          <g
             transform="translate(256.906,146.485)"
             id="g3491">
            <path
               style="stroke:none"
               d="m 1.90625,-0.53125 c 0,-0.28125 -0.234375,-0.53125 -0.515625,-0.53125 -0.296875,0 -0.53125,0.25 -0.53125,0.53125 C 0.859375,-0.234375 1.09375,0 1.390625,0 1.671875,0 1.90625,-0.234375 1.90625,-0.53125 Z m 0,0"
               id="id-cf98c744-31ad-45aa-b88c-f7b281a30fe9" />
          </g>
        </g>
        <g
           style="fill:#000000;fill-opacity:1"
           id="id-8de30616-8313-4b7a-b708-79d840dd01be">
          <g
             transform="translate(259.673,146.485)"
             id="g3495">
            <path
               style="stroke:none"
               d="m 4.46875,-2 c 0,-1.1875 -0.8125,-2.1875 -1.890625,-2.1875 -0.46875,0 -0.90625,0.15625 -1.265625,0.515625 V -5.625 c 0.203125,0.0625 0.53125,0.125 0.84375,0.125 1.234375,0 1.9375,-0.90625 1.9375,-1.03125 0,-0.0625 -0.03125,-0.109375 -0.109375,-0.109375 0,0 -0.03125,0 -0.078125,0.03125 C 3.703125,-6.515625 3.21875,-6.3125 2.546875,-6.3125 2.15625,-6.3125 1.6875,-6.390625 1.21875,-6.59375 1.140625,-6.625 1.125,-6.625 1.109375,-6.625 1,-6.625 1,-6.546875 1,-6.390625 V -3.4375 c 0,0.171875 0,0.25 0.140625,0.25 0.078125,0 0.09375,-0.015625 0.140625,-0.078125 C 1.390625,-3.421875 1.75,-3.96875 2.5625,-3.96875 c 0.515625,0 0.765625,0.453125 0.84375,0.640625 0.15625,0.375 0.1875,0.75 0.1875,1.25 0,0.359375 0,0.953125 -0.25,1.375 C 3.109375,-0.3125 2.734375,-0.0625 2.28125,-0.0625 c -0.71875,0 -1.296875,-0.53125 -1.46875,-1.109375 0.03125,0 0.0625,0.015625 0.171875,0.015625 0.328125,0 0.5,-0.25 0.5,-0.484375 0,-0.25 -0.171875,-0.5 -0.5,-0.5 C 0.84375,-2.140625 0.5,-2.0625 0.5,-1.609375 0.5,-0.75 1.1875,0.21875 2.296875,0.21875 3.453125,0.21875 4.46875,-0.734375 4.46875,-2 Z m 0,0"
               id="id-ba28efa2-153a-4981-b468-7a7e5670a453" />
          </g>
        </g>
        <g
           style="fill:#000000;fill-opacity:1"
           id="id-e0058365-8128-468a-8180-97417f5fb8e9">
          <g
             transform="translate(264.654,146.485)"
             id="g3499">
            <path
               style="stroke:none"
               d="m 1.328125,-0.828125 c 0.53125,-0.578125 0.828125,-0.828125 1.1875,-1.140625 0,0 0.609375,-0.53125 0.96875,-0.890625 C 4.4375,-3.78125 4.65625,-4.265625 4.65625,-4.3125 c 0,-0.09375 -0.09375,-0.09375 -0.109375,-0.09375 -0.078125,0 -0.09375,0.015625 -0.15625,0.109375 -0.296875,0.484375 -0.5,0.640625 -0.734375,0.640625 -0.25,0 -0.359375,-0.15625 -0.515625,-0.328125 -0.1875,-0.21875 -0.359375,-0.421875 -0.6875,-0.421875 -0.75,0 -1.203125,0.921875 -1.203125,1.140625 0,0.046875 0.03125,0.109375 0.109375,0.109375 0.09375,0 0.109375,-0.046875 0.140625,-0.109375 0.1875,-0.46875 0.765625,-0.46875 0.84375,-0.46875 0.203125,0 0.390625,0.0625 0.625,0.140625 0.40625,0.15625 0.515625,0.15625 0.765625,0.15625 -0.359375,0.421875 -1.1875,1.140625 -1.375,1.296875 l -0.90625,0.84375 C 0.78125,-0.625 0.421875,-0.0625 0.421875,0.015625 c 0,0.09375 0.109375,0.09375 0.125,0.09375 0.078125,0 0.09375,-0.015625 0.15625,-0.125 0.234375,-0.359375 0.53125,-0.625 0.859375,-0.625 0.21875,0 0.328125,0.09375 0.578125,0.375 0.15625,0.21875 0.34375,0.375 0.625,0.375 1,0 1.578125,-1.265625 1.578125,-1.53125 0,-0.046875 -0.046875,-0.109375 -0.125,-0.109375 -0.09375,0 -0.109375,0.0625 -0.140625,0.140625 C 3.84375,-0.75 3.203125,-0.5625 2.875,-0.5625 c -0.1875,0 -0.375,-0.0625 -0.578125,-0.125 -0.34375,-0.125 -0.5,-0.171875 -0.703125,-0.171875 -0.015625,0 -0.171875,0 -0.265625,0.03125 z m 0,0"
               id="id-fe5a29b4-e864-42a5-a5d7-8601994babe9" />
          </g>
        </g>
        <g
           style="fill:#000000;fill-opacity:1"
           id="id-7fe94018-e730-4805-b72c-1ace4c20eea3">
          <g
             transform="translate(269.726,143.607)"
             id="g3503">
            <path
               style="stroke:none"
               d="m 5.1875,-1.578125 c 0.109375,0 0.28125,0 0.28125,-0.15625 0,-0.1875 -0.171875,-0.1875 -0.28125,-0.1875 H 1.03125 c -0.109375,0 -0.28125,0 -0.28125,0.171875 0,0.171875 0.15625,0.171875 0.28125,0.171875 z m 0,0"
               id="id-c6848e27-a0e2-4ace-9080-f283c300f58e" />
          </g>
        </g>
        <g
           style="fill:#000000;fill-opacity:1"
           id="id-fb4d5fad-b27a-4d22-9f91-be55208ffded">
          <g
             transform="translate(275.952,143.607)"
             id="g3507">
            <path
               style="stroke:none"
               d="M 3.515625,-1.265625 H 3.28125 c -0.015625,0.15625 -0.09375,0.5625 -0.1875,0.625 C 3.046875,-0.59375 2.515625,-0.59375 2.40625,-0.59375 H 1.125 c 0.734375,-0.640625 0.984375,-0.84375 1.390625,-1.171875 0.515625,-0.40625 1,-0.84375 1,-1.5 0,-0.84375 -0.734375,-1.359375 -1.625,-1.359375 -0.859375,0 -1.453125,0.609375 -1.453125,1.25 0,0.34375 0.296875,0.390625 0.375,0.390625 0.15625,0 0.359375,-0.125 0.359375,-0.375 0,-0.125 -0.046875,-0.375 -0.40625,-0.375 C 0.984375,-4.21875 1.453125,-4.375 1.78125,-4.375 c 0.703125,0 1.0625,0.546875 1.0625,1.109375 0,0.609375 -0.4375,1.078125 -0.65625,1.328125 L 0.515625,-0.265625 C 0.4375,-0.203125 0.4375,-0.1875 0.4375,0 h 2.875 z m 0,0"
               id="id-e8416746-bdfc-4a07-86f0-b2fa8d575254" />
          </g>
        </g>
      </g>
    </g>
  </g>
</svg>
